<svg id="Layer_1" data-name="Layer 1" xmlns="http://www.w3.org/2000/svg" viewBox="0 0 150 60">
    <defs>
        <style>.angular-1{fill:#ccc;}.angular-2{fill:#a6120d;}.angular-3{fill:#b3b3b3;}.angular-4{fill:#dd1b16;}.angular-5{fill:#f2f2f2;}
        </style>
    </defs>
    <title>1</title>
    <polygon class="angular-1"
             points="38.56 38.68 38.56 23.23 40.56 23.23 50.01 35.67 50.01 23.23 51.9 23.23 51.9 38.68 49.9 38.68 40.45 26.12 40.45 38.68 38.56 38.68 38.56 38.68"/>
    <path class="angular-1"
          d="M67.24,38.07a11.18,11.18,0,0,1-4,.71q-8.39,0-8.39-8,0-7.62,8.1-7.62a13.91,13.91,0,0,1,4.32.65V25.5a11.5,11.5,0,0,0-4.11-.76q-6.32,0-6.32,6,0,6.43,6.22,6.43a10.55,10.55,0,0,0,2.2-.26V31.65h2v6.42Z"/>
    <path class="angular-1"
          d="M70.43,32.71V23.23h2v9.49q0,4.45,4.43,4.45t4.43-4.45V23.23h2v9.49q0,6.07-6.43,6.07t-6.43-6.07Z"/>
    <polygon class="angular-1"
             points="88.85 23.23 88.85 37.06 96.93 37.06 96.93 38.68 86.85 38.68 86.85 23.23 88.85 23.23 88.85 23.23"/>
    <polygon class="angular-1"
             points="99.82 38.68 97.74 38.68 105.42 21.19 113.11 38.68 110.89 38.68 108.89 33.81 103.78 33.81 104.33 32.2 108.22 32.2 105.34 25.19 99.82 38.68"/>
    <path class="angular-1"
          d="M115.21,38.68V23.23h6.59q4.41,0,4.41,3.71,0,3-4.31,4.46l5.31,7.28h-2.64l-4.92-6.95V30.42q4.43-.7,4.43-3.4,0-2.14-2.46-2.14h-4.41v13.8h-2Z"/>
    <path class="angular-1" d="M134.69,23.23v11q0,4.45-5.24,4.45V37.06q3.24,0,3.24-2.83v-11Z"/>
    <path class="angular-1"
          d="M138.26,38.14V36.3a15.57,15.57,0,0,0,5.25.87q4,0,4-2.92,0-2.48-2.94-2.48h-2q-4.85,0-4.85-4.21,0-4.43,6.21-4.43a18.66,18.66,0,0,1,5,.65V25.6a14.29,14.29,0,0,0-5-.86q-4.21,0-4.21,2.81,0,2.48,2.85,2.48h2q4.94,0,4.94,4.21,0,4.54-6,4.54a20.36,20.36,0,0,1-5.25-.65Z"/>
    <polygon
            points="39.06 38.17 39.06 22.72 41.06 22.72 50.52 35.17 50.52 22.72 52.41 22.72 52.41 38.17 50.41 38.17 40.95 25.62 40.95 38.17 39.06 38.17"/>
    <path d="M67.75,37.57a11.2,11.2,0,0,1-4,.71q-8.39,0-8.39-8,0-7.62,8.1-7.62a13.92,13.92,0,0,1,4.32.65V25a11.5,11.5,0,0,0-4.11-.76q-6.32,0-6.32,6,0,6.43,6.22,6.43a10.55,10.55,0,0,0,2.2-.26V31.15h2v6.42Z"/>
    <path d="M70.94,32.21V22.72h2v9.49q0,4.45,4.43,4.45t4.43-4.45V22.72h2v9.49q0,6.07-6.43,6.07t-6.43-6.07Z"/>
    <polygon points="89.36 22.72 89.36 36.55 97.44 36.55 97.44 38.17 87.36 38.17 87.36 22.72 89.36 22.72 89.36 22.72"/>
    <polygon
            points="100.32 38.17 98.25 38.17 105.93 20.68 113.61 38.17 111.39 38.17 109.4 33.31 104.29 33.31 104.84 31.69 108.73 31.69 105.84 24.69 100.32 38.17"/>
    <path d="M115.72,38.17V22.72h6.59q4.41,0,4.41,3.71,0,3-4.31,4.46l5.3,7.28h-2.64l-4.91-6.95V29.92q4.43-.7,4.43-3.4,0-2.14-2.46-2.14h-4.41v13.8Z"/>
    <path class="angular-2" d="M135.2,22.72v11q0,4.45-5.24,4.45V36.55q3.24,0,3.24-2.83v-11Z"/>
    <path class="angular-2"
          d="M138.76,37.63V35.8a15.59,15.59,0,0,0,5.25.87q4,0,4-2.92,0-2.48-2.94-2.48h-2q-4.85,0-4.85-4.21,0-4.43,6.21-4.43a18.66,18.66,0,0,1,5,.65V25.1a14.28,14.28,0,0,0-5-.87q-4.21,0-4.21,2.81,0,2.48,2.85,2.48h2q4.94,0,4.94,4.21,0,4.54-6,4.54a20.34,20.34,0,0,1-5.25-.65Z"/>
    <polygon class="angular-3" points="18.04 10.82 0 17.17 2.85 40.81 18.06 49.18 33.35 40.7 36.2 17.06 18.04 10.82"/>
    <polygon class="angular-2" points="34.4 18.43 18 12.84 18 47.18 31.75 39.57 34.4 18.43"/>
    <polygon class="angular-4" points="2.02 18.53 4.47 39.67 18 47.18 18 12.83 2.02 18.53"/>
    <path class="angular-5"
          d="M22.52,31.12,18,33.23H13.24L11,38.82l-4.16.08L18,14.08l4.51,17Zm-.44-1.06-4-8-3.32,7.88H18l4.08.14Z"/>
    <polygon class="angular-3"
             points="18 14.08 18.03 22.04 21.8 29.92 18.01 29.92 18 33.22 23.24 33.23 25.69 38.9 29.67 38.98 18 14.08"/>
</svg>