<svg id="Layer_1" data-name="Layer 1" xmlns="http://www.w3.org/2000/svg" xmlns:xlink="http://www.w3.org/1999/xlink"
     viewBox="0 0 150 60">
    <defs>
        <style>
            .mongo-1{fill:url(#mongo-l-g);}.mongo-2{fill:url(#mongo-l-g-2);}.mongo-3{fill:url(#mongo-l-g-3);}.mongo-4{fill:#c1bfbe;}.mongo-5{fill:#494849;}
        </style>
        <linearGradient id="mongo-l-g" x1="-65.83" y1="129.91" x2="-79" y2="129.82"
                        gradientTransform="matrix(-0.98, -0.32, 0.29, -0.88, -99.11, 122.44)"
                        gradientUnits="userSpaceOnUse">
            <stop offset="0.23" stop-color="#9b9a75"/>
            <stop offset="0.56" stop-color="#9c9b77"/>
            <stop offset="0.68" stop-color="#a2a17e"/>
            <stop offset="0.77" stop-color="#abaa89"/>
            <stop offset="0.84" stop-color="#b8b79a"/>
            <stop offset="0.9" stop-color="#cac8b0"/>
            <stop offset="0.95" stop-color="#dfddcb"/>
            <stop offset="0.99" stop-color="#f8f6eb"/>
            <stop offset="1" stop-color="#fbf9ef"/>
        </linearGradient>
        <linearGradient id="mongo-l-g-2" x1="-63.8" y1="152.96" x2="-82.74" y2="120.15"
                        gradientTransform="matrix(-0.98, -0.32, 0.29, -0.88, -99.11, 122.44)"
                        gradientUnits="userSpaceOnUse">
            <stop offset="0" stop-color="#599e4c"/>
            <stop offset="1" stop-color="#498e41"/>
        </linearGradient>
        <linearGradient id="mongo-l-g-3" x1="-62.07" y1="129.37" x2="-75.49" y2="138.39"
                        gradientTransform="matrix(-0.98, -0.32, 0.29, -0.88, -99.11, 122.44)"
                        gradientUnits="userSpaceOnUse">
            <stop offset="0" stop-color="#4fa346"/>
            <stop offset="0.24" stop-color="#59a84f"/>
            <stop offset="0.65" stop-color="#75b667"/>
            <stop offset="1" stop-color="#91c47f"/>
        </linearGradient>
    </defs>
    <title>1</title>
    <path class="mongo-1"
          d="M10.29,50.13l-1.12-.37s.14-5.65-1.9-6c-1.34-1.56.21-66.54,5.09-.22a4,4,0,0,0-2,2.26A21,21,0,0,0,10.29,50.13Z"/>
    <path class="mongo-2"
          d="M10.89,44.67S20.59,38.28,18.32,25C16.13,15.36,11,12.19,10.41,11A14.54,14.54,0,0,1,9.18,8.61l.41,26.87S8.74,43.68,10.89,44.67Z"/>
    <path class="mongo-3"
          d="M8.6,45S-.5,38.82,0,27.86,7,11.52,8.23,10.54a2.57,2.57,0,0,0,.91-2c.57,1.22.47,18.21.53,20.19C9.9,36.42,9.24,43.57,8.6,45Z"/>
    <path class="mongo-4"
          d="M112.54,24.94c.52,0,2.5.09,3.43.09,1.72,0,2.92-.09,6.14-.09a9.94,9.94,0,0,1,6.6,2.12,8.81,8.81,0,0,1,3,6.94A9,9,0,0,1,128,41.79,12.43,12.43,0,0,1,120.2,44c-1.84,0-5-.06-7.64-.09h0c-.12-.24.23-1.19.44-1.21a4,4,0,0,0,1.24-.24c.56-.23.69-.51.75-1.51.09-1.88.06-4.12.06-6.67,0-1.82,0-5.37,0-6.49-.09-.94-.49-1.18-1.29-1.36a17.15,17.15,0,0,0-1.72-.27C111.92,25.94,112.39,25.12,112.54,24.94Zm6.13,16.85a5.47,5.47,0,0,0,3.07.73A6,6,0,0,0,126.07,41c1.44-1.3,2.42-3.3,2.42-6.49a7.72,7.72,0,0,0-3.56-7,9.53,9.53,0,0,0-5.1-1.18,4.24,4.24,0,0,0-1.5.18.8.8,0,0,0-.28.42c-.06.55-.06,4.7-.06,7.15s0,6,.06,6.46A1.86,1.86,0,0,0,118.67,41.79Z"/>
    <path class="mongo-4"
          d="M134.3,24.94c.28,0,1.09.09,3.18.09S141,25,142.94,25c2.36,0,5.62.85,5.62,4.36a4.25,4.25,0,0,1-2.82,3.79c-.09,0-.09.09,0,.12,2.27.58,4.27,2,4.27,4.64s-1.63,4.24-4,5.27a12.73,12.73,0,0,1-5,.85c-1.38,0-5.08-.15-7.14-.12-.22-.09.2-1.06.38-1.21a5.76,5.76,0,0,0,1.39-.22c.74-.18.82-.42.92-1.51.06-.94.06-4.3.06-6.7,0-3.27,0-5.49,0-6.58,0-.85-.34-1.12-.92-1.27s-1.23-.18-1.84-.27C133.67,26,134.14,25.06,134.3,24.94Zm12.51,13.61c0-2.67-2-4.18-5.56-4.18a13.91,13.91,0,0,0-1.57,0c-.09,0-.18.09-.18.15,0,1.91,0,5,.06,6.18a2,2,0,0,0,.89,1.46,6.17,6.17,0,0,0,2.36.33A3.69,3.69,0,0,0,146.81,38.55Zm-7-12.12c-.12,0-.28.33-.28.49,0,1.09-.06,3.94-.06,5.91a.2.2,0,0,0,.15.15c.4,0,1.38.06,2.21.06a5.27,5.27,0,0,0,2.21-.33,2.86,2.86,0,0,0,1.44-2.7c0-2.64-1.84-3.64-4.57-3.64A8.18,8.18,0,0,0,139.84,26.42Z"/>
    <path class="mongo-5"
          d="M24.49,44a1.31,1.31,0,0,1-.09-.61.78.78,0,0,1,.09-.41,10.16,10.16,0,0,0,1.18-.24c.54-.13.75-.43.78-1.12.09-1.63.09-4.7.06-6.86v-.06a.86.86,0,0,0-.28-.77,6.15,6.15,0,0,0-1.63-.71c-.26-.08-.4-.21-.39-.37s.17-.35.5-.41a19.44,19.44,0,0,0,4.13-1.07.6.6,0,0,1,.12.44l0,.3c0,.3-.06.65-.06,1a.22.22,0,0,0,.23.2.22.22,0,0,0,.16-.07,7.62,7.62,0,0,1,4.1-1.85,3.53,3.53,0,0,1,3.14,1.92.21.21,0,0,0,.18.1.2.2,0,0,0,.17-.09,8.23,8.23,0,0,1,4.25-1.94c2.51,0,4,1.88,4,5,0,.9,0,2,0,3.12s0,1.82,0,2.43a.83.83,0,0,0,.5.64,6.42,6.42,0,0,0,1.57.39h0A2.32,2.32,0,0,1,47,44l-.68,0c-.52,0-1.24-.06-2.07-.06-1.67,0-2.54,0-3.38.09a2.52,2.52,0,0,1,0-1,9,9,0,0,0,1-.24c.53-.18.68-.42.72-1.12,0-.5.11-4.91-.06-6a2.67,2.67,0,0,0-2.77-2.36A4.88,4.88,0,0,0,37,34.31a.41.41,0,0,0-.1.26v0a11.28,11.28,0,0,1,.12,2.22c0,.57,0,1.17,0,1.77,0,1.22,0,2.36,0,3.23a.81.81,0,0,0,.65.85l.4.09c.24.06.49.12.86.18a1.63,1.63,0,0,1,0,.76.59.59,0,0,1-.11.26c-.93,0-1.88-.06-3.26-.06l-1.7,0-1.21,0a1.2,1.2,0,0,1-.09-.53.92.92,0,0,1,.1-.49l.37-.07c.32-.06.6-.11.87-.17.45-.14.63-.39.66-1a45.53,45.53,0,0,0,0-6.21,2.55,2.55,0,0,0-2.64-2.35,5,5,0,0,0-2.76,1.05.84.84,0,0,0-.25.62c0,.46,0,1,0,1.6,0,2,0,4.38,0,5.43a.86.86,0,0,0,.75.85c.13,0,.36.08.63.12l.49.08a2.17,2.17,0,0,1-.08,1l-1,0c-.58,0-1.29-.06-2.11-.06s-1.63,0-2.16.06l-1,0Z"/>
    <path class="mongo-5"
          d="M55.43,44.23c-4.61,0-6.25-3.38-6.25-6.54a5.84,5.84,0,0,1,2.69-5.13A8.2,8.2,0,0,1,56,31.33a5.8,5.8,0,0,1,6,6.15,6.36,6.36,0,0,1-2.84,5.62,8,8,0,0,1-3.72,1.14Zm-.49-11.61a2.62,2.62,0,0,0-1.47.41c-1.07.65-1.61,1.94-1.61,3.84,0,3.56,1.78,6,4.33,6a2.73,2.73,0,0,0,1.88-.66c.78-.64,1.2-1.94,1.2-3.77,0-3.5-1.74-5.86-4.34-5.86Z"/>
    <path class="mongo-5"
          d="M103.19,44.23c-4.61,0-6.25-3.38-6.25-6.54a5.84,5.84,0,0,1,2.69-5.13,8.19,8.19,0,0,1,4.15-1.23,5.8,5.8,0,0,1,6,6.15,6.36,6.36,0,0,1-2.84,5.62,8,8,0,0,1-3.72,1.14Zm-.49-11.61a2.62,2.62,0,0,0-1.47.41c-1.07.65-1.61,1.94-1.61,3.84,0,3.56,1.78,6,4.33,6a2.73,2.73,0,0,0,1.88-.66c.78-.64,1.2-1.94,1.2-3.77,0-3.5-1.74-5.86-4.33-5.86Z"/>
    <path class="mongo-5"
          d="M87.26,51.51a6,6,0,0,1-3.87-1.13A3.62,3.62,0,0,1,82,47.7a2.09,2.09,0,0,1,.54-1.36,14.37,14.37,0,0,1,2.5-2,.13.13,0,0,0,.08-.12.13.13,0,0,0-.1-.13,2.63,2.63,0,0,1-1.77-1.72V42.3a.4.4,0,0,1,.16-.5c.18-.13.46-.3.77-.47a10.11,10.11,0,0,0,1.23-.8.2.2,0,0,0-.05-.31,4,4,0,0,1-2.83-4.16,4.14,4.14,0,0,1,1.74-3.41,7.94,7.94,0,0,1,3.89-1.32h.07a8,8,0,0,1,3,.66,4.74,4.74,0,0,0,1.75.28,2.38,2.38,0,0,0,1.9-.71,1.63,1.63,0,0,1,.1.54,2,2,0,0,1-.34,1.25,1.54,1.54,0,0,1-1.18.51h-.14a3.9,3.9,0,0,1-.71-.12l-.12,0c0,.05,0,.12,0,.19l0,0a8.43,8.43,0,0,1,.17,1.16,4.34,4.34,0,0,1-1.83,3.92,6.26,6.26,0,0,1-3.17,1.22h0l-.37,0-.36,0h0c-.21.06-.75.32-.75.79s.24.89,1.41,1l.76.05a23.15,23.15,0,0,1,4.37.55,3,3,0,0,1,2,2.91c0,2-1.42,3.88-3.81,5a8.28,8.28,0,0,1-3.6.81Zm-.18-7a2.34,2.34,0,0,0-1.15.29c-1.13.72-1.65,1.44-1.65,2.27a2.42,2.42,0,0,0,1,2,4.84,4.84,0,0,0,3.26,1c2.76,0,4-1.48,4-2.95a2.09,2.09,0,0,0-1.57-2.09,12.32,12.32,0,0,0-3.84-.46Zm.18-12c-1.42,0-2.34,1.12-2.34,2.86s.79,3.8,3,3.8a2.16,2.16,0,0,0,1.42-.55,3.54,3.54,0,0,0,.85-2.49c0-2.26-1.1-3.61-2.95-3.61Z"/>
    <path class="mongo-5"
          d="M79.77,42.85A5.5,5.5,0,0,1,78,42.39a.81.81,0,0,1-.22-.42c-.06-.94-.06-3.67-.06-5.46a6.54,6.54,0,0,0-.86-3.64,3.7,3.7,0,0,0-3.13-1.64,7.28,7.28,0,0,0-4.11,1.94s-.23.22-.23-.08.05-.9.08-1.29a.66.66,0,0,0-.2-.56,18.87,18.87,0,0,1-4.17,1.09c-.65.13-.85.75-.12,1h0a5.94,5.94,0,0,1,1.58.69.83.83,0,0,1,.25.76c0,2,0,5.15-.06,6.85,0,.65-.21.89-.67,1a9.56,9.56,0,0,1-1.12.21,1.65,1.65,0,0,0,0,1.21c.31,0,1.87-.09,3.16-.09,1.78,0,2.7.09,3.16.09a1.69,1.69,0,0,0,.12-1.21,6.54,6.54,0,0,1-1.26-.18c-.49-.12-.61-.36-.64-.91-.06-1.42-.06-4.46-.06-6.52a1.19,1.19,0,0,1,.34-1,4,4,0,0,1,2.52-.91,2.76,2.76,0,0,1,1.87.64,2.59,2.59,0,0,1,.86,1.7c.12,1.15.09,3.46.09,5.46,0,1.09-.09,1.36-.49,1.49a5,5,0,0,1-1.26.24,1.66,1.66,0,0,0,0,1.21c.8,0,1.72-.09,3.07-.09,1.69,0,2.76.09,3.19.09A1.68,1.68,0,0,0,79.77,42.85Z"/>
</svg>