<svg id="Layer_1" data-name="Layer 1" xmlns="http://www.w3.org/2000/svg" viewBox="0 0 150 60">
    <defs>
        <style>.sql-1{fill:#00678f;}.sql-1,.sql-2{fill-rule:evenodd;}.sql-2{fill:#e38d1a;}</style>
    </defs>
    <title>1</title>
    <path class="sql-1"
          d="M18.08,54.29h3.76V39.41l5.87,13c.66,1.56,1.62,2.14,3.47,2.14a3.19,3.19,0,0,0,3.44-2.14l5.84-13V54.29h3.79V39.41a2.27,2.27,0,0,0-1.79-2.51c-2.86-.87-4.77-.12-5.64,1.82L31.06,51.55,25.51,38.72c-.84-1.94-2.77-2.69-5.66-1.82a2.28,2.28,0,0,0-1.76,2.51V54.29Z"/>
    <path class="sql-1"
          d="M47.36,42.19h3.79v8.18c0,.46.14,1.5,2.2,1.53,1.07,0,8.15,0,8.21,0V42.13h3.79V55.51c0,3.29-4.07,4-6,4H47.44V57H59.38c2.43-.26,2.14-1.47,2.14-1.88v-1h-8c-3.73,0-6.13-1.68-6.16-3.55,0-.17.09-8.38,0-8.44Z"/>
    <path class="sql-1"
          d="M128.57,32.71a13.38,13.38,0,0,0-5.61.81c-.43.17-1.13.17-1.19.72.23.23.26.61.46.92a6.76,6.76,0,0,0,1.5,1.76c.61.46,1.21.92,1.85,1.33,1.13.69,2.4,1.1,3.5,1.79.64.4,1.27.92,1.91,1.36.32.23.52.61.92.75v-.09c-.2-.26-.26-.64-.46-.92l-.87-.84a13.71,13.71,0,0,0-3-2.92c-.92-.64-2.95-1.5-3.32-2.57l-.06-.06a11.74,11.74,0,0,0,2-.46c1-.26,1.88-.2,2.89-.46.46-.12.92-.26,1.39-.4v-.26c-.52-.52-.9-1.21-1.44-1.71a38.54,38.54,0,0,0-4.77-3.55c-.9-.58-2.05-1-3-1.45-.35-.17-.92-.26-1.13-.55a11.67,11.67,0,0,1-1.18-2.23c-.84-1.59-1.65-3.35-2.37-5a30.81,30.81,0,0,0-1.47-3.29A29.13,29.13,0,0,0,103.91,4.56a13.89,13.89,0,0,0-3.7-1.18L98,3.26a11.5,11.5,0,0,1-1.33-1c-1.65-1-5.9-3.29-7.11-.32-.78,1.88,1.16,3.73,1.82,4.68A13.64,13.64,0,0,1,92.9,8.78c.2.49.26,1,.46,1.53a34.65,34.65,0,0,0,1.5,3.87A14,14,0,0,0,95.94,16c.23.32.64.46.72,1A8.27,8.27,0,0,0,96,19.12a12.73,12.73,0,0,0,.84,9.71c.46.72,1.56,2.31,3,1.71,1.3-.52,1-2.17,1.39-3.61.09-.35,0-.58.2-.81v.06c.4.81.81,1.59,1.18,2.4a16.5,16.5,0,0,0,3.76,3.87c.69.52,1.24,1.42,2.11,1.73v-.09h-.06a3.19,3.19,0,0,0-.66-.58,14,14,0,0,1-1.5-1.73A37.15,37.15,0,0,1,103,26.52c-.46-.9-.87-1.88-1.24-2.77-.17-.35-.17-.87-.46-1a10.88,10.88,0,0,0-1.39,2A16.29,16.29,0,0,0,99.15,29c-.12,0-.06,0-.12.06-.92-.23-1.24-1.18-1.59-2a12.5,12.5,0,0,1-.26-7.72c.2-.61,1.07-2.51.72-3.09-.17-.55-.75-.87-1.07-1.3a11.65,11.65,0,0,1-1-1.85c-.69-1.62-1-3.41-1.79-5a15.39,15.39,0,0,0-1.44-2.23A14.3,14.3,0,0,1,91,3.63c-.14-.32-.35-.84-.12-1.18a.46.46,0,0,1,.4-.38c.38-.32,1.45.09,1.82.26a14.75,14.75,0,0,1,2.86,1.44c.4.29.84.84,1.36,1h.61c.92.2,2,.06,2.83.32a18.48,18.48,0,0,1,4.16,2,25.64,25.64,0,0,1,9,9.88c.35.66.49,1.27.81,2,.61,1.42,1.36,2.86,2,4.25A19,19,0,0,0,118.74,27c.43.61,2.17.92,2.95,1.24a20.5,20.5,0,0,1,2,.81c1,.61,2,1.3,2.89,2,.46.35,1.91,1.07,2,1.65Z"/>
    <path class="sql-1"
          d="M99.09,7.59a4.57,4.57,0,0,0-1.18.14v.06H98A9.28,9.28,0,0,0,98.89,9c.23.46.43.92.66,1.39l.06-.06a1.63,1.63,0,0,0,.61-1.45,6.47,6.47,0,0,1-.35-.61c-.17-.29-.55-.43-.78-.66Z"/>
    <path class="sql-2"
          d="M68.22,54.29H79.09a8.26,8.26,0,0,0,3.47-.72C84.2,52.82,85,51.81,85,50.48V47.71c0-1.07-.9-2.08-2.69-2.77a9.46,9.46,0,0,0-3.21-.55H74.52c-1.53,0-2.25-.46-2.46-1.47a1.4,1.4,0,0,1,0-.35V40.86a1.29,1.29,0,0,1,0-.32c.2-.78.61-1,1.94-1.13H85.13V36.9H74.55a9.78,9.78,0,0,0-3.06.32c-2.23.69-3.21,1.79-3.21,3.73v2.2c0,1.7,1.91,3.15,5.14,3.5.35,0,.72,0,1.1,0h3.9a1.77,1.77,0,0,1,.4,0c1.18.12,1.7.32,2.05.75a.88.88,0,0,1,.29.69v2.2a1.28,1.28,0,0,1-.52.9,2.69,2.69,0,0,1-1.62.52c-.14,0-.23,0-.38,0H68.22v2.51Z"/>
    <path class="sql-2"
          d="M108.51,49.93c0,2.57,1.94,4,5.81,4.31.38,0,.72.06,1.1.06h9.83V51.78h-9.91c-2.2,0-3-.55-3-1.88v-13h-3.79v13Z"/>
    <path class="sql-2"
          d="M87.38,50v-9c0-2.28,1.62-3.67,4.77-4.1.35,0,.69-.06,1-.06h7.17c.38,0,.69,0,1.07.06,3.15.43,4.74,1.82,4.74,4.1v9a3.3,3.3,0,0,1-2.23,3.5l3.7,3.35h-4.36l-3-2.72-3,.17h-4a8.83,8.83,0,0,1-2.2-.29c-2.4-.66-3.58-1.94-3.58-4Zm4.07-.2a2.27,2.27,0,0,0,.09.38c.2,1,1.18,1.62,2.69,1.62h3.41L94.52,49h4.36l2.75,2.49a1.81,1.81,0,0,0,1-1.21,1.65,1.65,0,0,0,0-.38V41.32a1.41,1.41,0,0,0,0-.35c-.2-1-1.18-1.53-2.66-1.53H94.23c-1.68,0-2.77.72-2.77,1.88v8.53Z"/>
    <path class="sql-2"
          d="M127,54.32h.55V52.21h.72v-.43h-2v.43H127v2.11Zm4.19,0h.52V51.78h-.78l-.64,1.73-.69-1.73h-.75v2.54h.49V52.39h0l.72,1.94h.38l.72-1.94h0v1.94Z"/>
</svg>