<svg id="Layer_1" data-name="Layer 1" xmlns="http://www.w3.org/2000/svg" viewBox="0 0 150 60">
    <defs>
        <style>.reactn-1,.reactn-2{fill:#5067a8;}.reactn-2{font-size:19px;font-family:ProximaNova-Regular, Proxima
            Nova;}.reactn-3{letter-spacing:-0.03em;}
        </style>
    </defs>
    <title>React_Native</title>
    <circle class="reactn-1" cx="18.28" cy="30" r="3.08"/>
    <path class="reactn-1"
          d="M18.28,36.92c-9.61,0-17.14-3-17.14-6.92s7.53-6.92,17.14-6.92,17.14,3,17.14,6.92S27.89,36.92,18.28,36.92Zm0-12.62c-9.52,0-15.92,2.95-15.92,5.7s6.4,5.7,15.92,5.7S34.19,32.76,34.19,30,27.8,24.31,18.28,24.31Z"/>
    <path class="reactn-1"
          d="M11.35,45.26a3.23,3.23,0,0,1-1.64-.42c-3.36-1.94-2.23-10,2.58-18.3a34.54,34.54,0,0,1,7.59-9.37c2.8-2.28,5.28-3,7-2s2.31,3.48,1.74,7a34.56,34.56,0,0,1-4.32,11.25C20.16,40.58,14.89,45.26,11.35,45.26ZM25.16,16c-1.19,0-2.77.75-4.52,2.17a33.32,33.32,0,0,0-7.3,9c-4.76,8.25-5.41,15.26-3,16.64s8.13-2.69,12.9-10.94A33.33,33.33,0,0,0,27.38,22c.48-3,.06-5.1-1.15-5.8h0A2.12,2.12,0,0,0,25.16,16Z"/>
    <path class="reactn-1"
          d="M25.2,45.26c-3.54,0-8.81-4.69-12.92-11.8A34.56,34.56,0,0,1,8,22.21c-.57-3.57,0-6.07,1.74-7h0c1.69-1,4.17-.26,7,2a34.55,34.55,0,0,1,7.59,9.37c4.81,8.32,5.94,16.36,2.58,18.3A3.23,3.23,0,0,1,25.2,45.26ZM11.39,16a2.12,2.12,0,0,0-1.08.26h0C9.11,16.92,8.69,19,9.17,22a33.33,33.33,0,0,0,4.17,10.84c4.76,8.25,10.51,12.31,12.9,10.94s1.74-8.39-3-16.64a33.32,33.32,0,0,0-7.3-9C14.16,16.7,12.58,16,11.39,16Z"/>
    <text class="reactn-2" transform="translate(44.71 35.92)">
        <tspan class="reactn-3">R</tspan>
        <tspan x="11" y="0">eact Native</tspan>
    </text>
</svg>