<?xml version="1.0" standalone="no"?>
<!DOCTYPE svg PUBLIC "-//W3C//DTD SVG 20010904//EN"
 "http://www.w3.org/TR/2001/REC-SVG-20010904/DTD/svg10.dtd">
<svg version="1.0" xmlns="http://www.w3.org/2000/svg"
 width="300.000000pt" height="151.000000pt" viewBox="0 0 300 151"
 preserveAspectRatio="xMidYMid meet">
<metadata>
Created by potrace 1.10, written by Peter Selinger 2001-2011
</metadata>
<g transform="translate(0.000000,151.000000) scale(0.050000,-0.050000)"
fill="#000000" stroke="none">
<path d="M850 2950 c77 -41 363 -195 635 -343 360 -196 510 -268 550 -263 44
5 -24 49 -355 230 -528 288 -505 269 -290 256 231 -14 3094 -127 3365 -133
113 -2 205 -9 204 -16 -1 -22 -696 -381 -737 -381 -42 0 -42 -4 -42 -730 l0
-730 130 0 130 0 0 360 0 360 52 0 52 0 -7 -360 -7 -360 123 0 c110 0 777
-317 741 -352 -3 -4 -996 -43 -2205 -87 -1209 -44 -2242 -85 -2294 -91 -120
-14 -120 7 1 67 248 123 921 514 895 519 -25 6 -31 40 -31 170 0 90 -6 227
-13 304 -16 188 6 157 123 -170 115 -321 95 -295 226 -303 l106 -7 -1 559 c-1
307 -4 561 -7 564 -3 3 -50 -2 -105 -9 l-99 -15 0 -314 c0 -173 -4 -315 -10
-315 -5 0 -58 135 -117 300 -97 271 -111 299 -150 291 -24 -5 -74 -14 -113
-20 l-70 -11 4 -505 4 -505 74 -6 c81 -7 161 38 -1122 -640 -529 -280 -512
-267 -340 -254 77 6 464 24 860 41 396 16 1588 70 2650 118 1062 49 2016 91
2120 93 252 6 252 7 36 116 -102 52 -373 191 -601 310 l-415 215 0 741 0 740
-105 -14 c-180 -22 -166 6 -159 -330 l6 -300 -51 0 -51 0 0 296 0 295 459 240
c253 131 460 244 460 249 1 6 -109 13 -244 16 -135 3 -753 28 -1375 54 -621
27 -1481 63 -1910 79 -429 17 -856 36 -950 42 l-170 12 140 -73z"/>
<path d="M3774 2241 c-237 -46 -254 -95 -254 -711 0 -634 17 -670 308 -670
288 0 292 9 292 727 l0 569 -62 52 c-64 55 -131 62 -284 33z m87 -678 c0 -266
0 -492 -1 -503 0 -11 -18 -20 -40 -20 -50 0 -64 1008 -15 1026 51 19 57 -30
56 -503z"/>
<path d="M3086 2141 c-161 -38 -226 -138 -226 -345 l0 -126 120 7 120 7 0 123
c1 194 82 247 108 70 17 -119 -2 -173 -187 -526 -125 -239 -161 -326 -161
-389 l0 -82 135 0 c74 0 209 -6 300 -13 l165 -13 0 92 0 92 -157 6 -156 6 148
314 c285 605 212 877 -209 777z"/>
<path d="M2500 2062 l-230 -33 -6 -76 -7 -76 73 6 73 6 -2 -504 -2 -505 142 0
141 0 -6 518 -6 519 75 11 c72 12 75 16 75 92 0 93 22 91 -320 42z"/>
<path d="M1325 1896 l-126 -20 6 -483 5 -483 130 -6 130 -6 0 511 c0 281 -4
510 -10 508 -5 -1 -66 -11 -135 -21z"/>
</g>
</svg>
