<svg xmlns="http://www.w3.org/2000/svg" viewBox="0 0 384.88 384.88">
    <defs>
        <style>.khjs-1{fill:#ebdb39;}.khjs-2{fill:#1c1c1c;}</style>
    </defs>
    <g id="Layer_2" data-name="Layer 2">
        <rect class="khjs-1" width="384.88" height="384.88"/>
        <path class="khjs-2" d="M384.88,384.88H0V0H384.88ZM5.35,379.53H379.53V5.35H5.35Z"/>
        <path class="khjs-2"
              d="M203.79,291.6q0,21.6-8.31,35.72a62.37,62.37,0,0,1-21,22,142.46,142.46,0,0,1-29.79,13.53L131.62,328.4q10.2-3.8,15.19-9.14a26,26,0,0,0,6.53-12.11,79.53,79.53,0,0,0,1.54-17.21V152.73h48.9Z"/>
        <path class="khjs-2"
              d="M336.72,170.53l-21.6,25.4q-16.62-13.29-35.37-13.29-8.79,0-13.3,3.09a10.92,10.92,0,0,0-2,15.79q2.49,2.73,8.31,5.1t18.87,6.65q26.11,8.31,37.62,20.89t11.51,34.42a48.38,48.38,0,0,1-8.43,28.13q-8.43,12.23-24.1,19.11t-37,6.89q-21.84,0-38.45-6.89a87,87,0,0,1-28-18l24-26.35q18.75,16.15,40.59,16.14,10.2,0,15.43-4.16a13.17,13.17,0,0,0,5.22-10.8,14.46,14.46,0,0,0-2.26-8.31q-2.26-3.32-8-6.17A112.7,112.7,0,0,0,263.13,252q-28.73-9-40.12-21.72t-11.4-31.69q0-15.43,8.31-26.83t22.91-17.57q14.6-6.17,32.88-6.17Q313.46,148,336.72,170.53Z"/>
        <path class="khjs-2" d="M157,74.84V49h4.34V74.84ZM170.46,49h4.79l-9,11.76L176,74.84h-5.2L161.51,61Z"/>
        <path class="khjs-2"
              d="M181.3,57.5a7.89,7.89,0,0,1,6.14-3c3.71,0,5.5,2.17,5.5,5.88V74.84h-4.19V61.06c0-2.36-.86-3.3-2.85-3.3s-3.56,1.42-4.6,2.92V74.84h-4.19V47.17l4.19-.45Z"/>
        <path class="khjs-2"
              d="M213.83,72.48l-1,2.85a4.56,4.56,0,0,1-4.08-2.73,7.86,7.86,0,0,1-6.29,2.73c-4,0-6.51-2.47-6.51-6.14,0-4.12,3.37-6.48,9.4-6.48h2.81V61.43c0-2.58-1.61-3.59-4.38-3.59a16.53,16.53,0,0,0-5.24,1l-1-3a20,20,0,0,1,6.93-1.35c5.32,0,7.9,2.47,7.9,6.63V70C212.33,71.54,212.78,72.14,213.83,72.48Zm-5.65-2.77V65.33h-2.32c-3.93,0-5.47,1.39-5.47,3.71,0,2.1,1.12,3.22,3.33,3.22A5.29,5.29,0,0,0,208.17,69.71Z"/>
        <path class="khjs-2"
              d="M234.29,55.07l-.71,7.3h-3v-4c-2.81.07-4.83,2.32-6,6.18v7.34h4v3H217.48v-3h2.92V58.06h-2.92v-3h6.1l.75,4.57c1.5-3.3,3.56-5.05,7-5.05A9,9,0,0,1,234.29,55.07Z"/>
        <path class="khjs-2" d="M241.69,74.84H237.5V47.13l4.19-.49Zm5.13-10.93,8.8,10.93h-5.13L242,64l7.94-8.95h4.87Z"/>
        <path class="khjs-2"
              d="M268.27,71.77h5.39v3.07H258.2V71.77h5.88V58.14h-5.69V55.07h9.88ZM268.12,48a2.73,2.73,0,1,1-2.73-2.66A2.62,2.62,0,0,1,268.12,48Z"/>
        <path class="khjs-2" d="M287.91,74.84H283l-7-19.77h4.53l5,16.29,5.05-16.29h4.31Z"/>
        <path class="khjs-2"
              d="M171.43,102.27l1.91,2.69a11,11,0,0,1-6.93,2.43c-6.1,0-9.62-4.08-9.62-10.26s3.59-10.52,9.7-10.52a10.39,10.39,0,0,1,6.85,2.4l-1.95,2.62A8.52,8.52,0,0,0,166.56,90c-3.14,0-5.32,2.21-5.32,7.15s2.25,6.81,5.32,6.81A8.68,8.68,0,0,0,171.43,102.27Z"/>
        <path class="khjs-2"
              d="M194,97c0,6.29-3.22,10.41-8.95,10.41s-8.95-4-8.95-10.37c0-6.18,3.22-10.41,9-10.41S194,90.7,194,97Zm-13.48,0c0,4.91,1.5,7.15,4.53,7.15s4.53-2.25,4.53-7.19S188,89.88,185,89.88,180.48,92.12,180.48,97Z"/>
        <path class="khjs-2"
              d="M197.21,87.14h3.63l.3,2.58a8.26,8.26,0,0,1,6.4-3.11c3.67,0,5.5,2.17,5.5,5.88v14.41h-4.19V94.59c0-3.44-.41-4.76-2.81-4.76a6,6,0,0,0-4.64,2.88v14.19h-4.19Z"/>
        <path class="khjs-2"
              d="M235.23,79.88,234,82.8a10.8,10.8,0,0,0-4.23-.82c-2.58,0-3.82,1-3.82,3.07v3.52h6.63L232,91.67h-6.14v15.24h-4.19V91.67h-4.49V88.57h4.49V85c0-3.74,3-6.29,7.6-6.29A14.33,14.33,0,0,1,235.23,79.88Z"/>
        <path class="khjs-2"
              d="M246.26,104.14a9,9,0,0,0,5.2-1.72l1.8,2.54a11.47,11.47,0,0,1-7.19,2.43c-6.18,0-9.55-4.19-9.55-10.37,0-5.91,3.41-10.41,9-10.41,5.24,0,8.54,3.74,8.54,9.88a13.45,13.45,0,0,1-.11,1.87h-13.1C241.13,102.42,243.42,104.14,246.26,104.14Zm-5.43-8.61H250c-.07-3.74-1.61-5.8-4.42-5.8C243,89.73,241.1,91.56,240.83,95.53Z"/>
        <path class="khjs-2"
              d="M274.48,87.14l-.71,7.3h-3v-4c-2.81.07-4.83,2.32-6,6.18v7.34h4v3H257.67v-3h2.92V90.14h-2.92v-3h6.1l.75,4.57c1.5-3.3,3.56-5.05,7-5.05A9,9,0,0,1,274.48,87.14Z"/>
        <path class="khjs-2"
              d="M286.45,104.14a9,9,0,0,0,5.2-1.72l1.8,2.54a11.46,11.46,0,0,1-7.19,2.43c-6.18,0-9.55-4.19-9.55-10.37,0-5.91,3.41-10.41,9-10.41,5.24,0,8.54,3.74,8.54,9.88a13.45,13.45,0,0,1-.11,1.87h-13.1C281.32,102.42,283.61,104.14,286.45,104.14ZM281,95.53h9.17c-.07-3.74-1.61-5.8-4.42-5.8C283.16,89.73,281.29,91.56,281,95.53Z"/>
        <path class="khjs-2"
              d="M297.67,87.14h3.63l.3,2.58a8.26,8.26,0,0,1,6.4-3.11c3.67,0,5.5,2.17,5.5,5.88v14.41h-4.19V94.59c0-3.44-.41-4.76-2.81-4.76a6,6,0,0,0-4.64,2.88v14.19h-4.19Z"/>
        <path class="khjs-2"
              d="M332.18,102.27l1.91,2.69a11,11,0,0,1-6.92,2.43c-6.1,0-9.62-4.08-9.62-10.26s3.59-10.52,9.7-10.52a10.39,10.39,0,0,1,6.85,2.4l-1.94,2.62A8.53,8.53,0,0,0,327.31,90c-3.15,0-5.32,2.21-5.32,7.15s2.25,6.81,5.32,6.81A8.68,8.68,0,0,0,332.18,102.27Z"/>
        <path class="khjs-2"
              d="M346.73,104.14a9,9,0,0,0,5.2-1.72l1.8,2.54a11.47,11.47,0,0,1-7.19,2.43c-6.18,0-9.55-4.19-9.55-10.37,0-5.91,3.41-10.41,9-10.41,5.24,0,8.54,3.74,8.54,9.88a13.45,13.45,0,0,1-.11,1.87h-13.1C341.6,102.42,343.89,104.14,346.73,104.14Zm-5.43-8.61h9.17c-.07-3.74-1.61-5.8-4.42-5.8C343.44,89.73,341.57,91.56,341.3,95.53Z"/>
    </g>
</svg>