<svg xmlns="http://www.w3.org/2000/svg" viewBox="0 -46 400 496.7" enable-background="new 0 -46 400 496.7">
    <path fill="#525352"
          d="M200.3 376.7c-67.6 0-130.4-36.6-163.8-95.4-.6-1.1-.2-2.6.9-3.2 1.1-.6 2.6-.2 3.2.9 32.6 57.4 93.8 93 159.8 93 65.4 0 126.3-35.2 159.1-91.9.6-1.1 2.1-1.5 3.2-.9s1.5 2.1.9 3.2c-33.8 58.2-96.3 94.3-163.3 94.3zM29.7 116.4c-.3 0-.6-.1-.9-.2-1.2-.5-1.7-1.9-1.2-3.1C57.5 44.4 125.3 0 200.3 0 275 0 342.7 44.2 372.8 112.6c.5 1.2 0 2.6-1.2 3.1s-2.6 0-3.1-1.2C339.1 47.8 273.1 4.7 200.3 4.7 127.2 4.7 61.1 48 31.8 115c-.3.9-1.2 1.4-2.1 1.4zM320.1 72.7c-14.1 0-25.6-11.5-25.6-25.6 0-14.1 11.5-25.6 25.6-25.6 14.1 0 25.6 11.5 25.6 25.6 0 14.1-11.5 25.6-25.6 25.6zm0-45.9c-11.2 0-20.3 9.1-20.3 20.3 0 11.2 9.1 20.3 20.3 20.3 11.2 0 20.3-9.1 20.3-20.3 0-11.2-9.1-20.3-20.3-20.3zM346.4 21.5c-.6 0-1.2-.2-1.7-.7-.9-.9-.9-2.4 0-3.3l7.5-7.5c.9-.9 2.4-.9 3.3 0 .9.9.9 2.4 0 3.3l-7.5 7.5c-.4.4-1 .7-1.6.7zM335.9 15.3c-1.3 0-2.4-1.1-2.4-2.3V5.7c0-1.3 1.1-2.3 2.4-2.3 1.3 0 2.3 1.1 2.3 2.3V13c.1 1.3-1 2.3-2.3 2.3zM360.6 32.8h-7c-1.3 0-2.3-1.1-2.3-2.3 0-1.3 1-2.3 2.3-2.3h7c1.3 0 2.3 1.1 2.3 2.3.1 1.2-1 2.3-2.3 2.3z"/>
    <g fill="#525352">
        <path d="M82.8 98.7c0-.3.3-.5.5-.5h3.4c.3 0 .5.3.5.5v18.9c0 .3-.3.5-.5.5h-3.4c-.3 0-.5-.3-.5-.5V98.7zM93.6 98.4c0-.3.3-.5.5-.5h.7l11.4 11V98.7c0-.3.2-.5.5-.5h3.4c.3 0 .5.3.5.5v19.2c0 .3-.3.5-.5.5h-.5c-.1 0-.3-.1-.4-.1L97.9 107v10.7c0 .3-.2.5-.5.5H94c-.3 0-.5-.3-.5-.5l.1-19.3zM119.7 102.3h-4.1c-.3 0-.5-.3-.5-.5v-3.1c0-.3.2-.5.5-.5h12.7c.3 0 .5.3.5.5v3.1c0 .3-.2.5-.5.5h-4.1v15.3c0 .3-.3.5-.5.5h-3.4c-.3 0-.5-.3-.5-.5v-15.3zM133.1 98.7c0-.3.2-.5.5-.5h11.8c.3 0 .5.3.5.5v3.1c0 .3-.2.5-.5.5h-7.9v3.5h6.5c.3 0 .5.3.5.5v3.1c0 .3-.3.5-.5.5h-6.5v3.9h7.9c.3 0 .5.3.5.5v3.1c0 .3-.2.5-.5.5h-11.8c-.3 0-.5-.3-.5-.5V98.7zM151.3 98.7c0-.3.2-.5.5-.5h8.5c3.4 0 6.2 2.8 6.2 6.2 0 2.6-1.7 4.7-4.2 5.7l3.9 7.3c.2.4 0 .8-.5.8H162c-.2 0-.4-.1-.5-.3l-3.8-7.6h-2v7.3c0 .3-.3.5-.5.5h-3.4c-.3 0-.5-.3-.5-.5V98.7zm8.7 8c1.2 0 2.2-1.1 2.2-2.3s-1-2.2-2.2-2.2h-4.2v4.5h4.2zM171.8 98.4c0-.3.3-.5.5-.5h.7l11.4 11V98.7c0-.3.2-.5.5-.5h3.4c.3 0 .5.3.5.5v19.2c0 .3-.3.5-.5.5h-.3c-.1 0-.3-.1-.4-.1L176.3 107v10.7c0 .3-.2.5-.5.5h-3.4c-.3 0-.5-.3-.5-.5l-.1-19.3zM192.8 117.4l8.9-19.2c.1-.2.3-.3.5-.3h.3c.2 0 .4.1.5.3l8.9 19.2c.2.4-.1.7-.5.7h-3.2c-.5 0-.7-.2-1-.7l-1-2.3h-7.8l-1 2.3c-.1.3-.5.7-1 .7h-3.1c-.4 0-.7-.3-.5-.7zm11.7-6.1l-2.2-4.7-2.1 4.7h4.3zM217.3 102.3h-4.1c-.3 0-.5-.3-.5-.5v-3.1c0-.3.2-.5.5-.5h12.7c.3 0 .5.3.5.5v3.1c0 .3-.2.5-.5.5h-4.1v15.3c0 .3-.3.5-.5.5h-3.4c-.3 0-.5-.3-.5-.5v-15.3zM230.7 98.7c0-.3.3-.5.5-.5h3.4c.3 0 .5.3.5.5v18.9c0 .3-.3.5-.5.5h-3.4c-.3 0-.5-.3-.5-.5V98.7zM250.3 97.9c5.7 0 10.3 4.6 10.3 10.3 0 5.7-4.6 10.3-10.3 10.3-5.7 0-10.3-4.5-10.3-10.3.1-5.7 4.6-10.3 10.3-10.3zm0 16c3.1 0 5.7-2.6 5.7-5.7s-2.6-5.7-5.7-5.7-5.7 2.6-5.7 5.7 2.6 5.7 5.7 5.7zM265.5 98.4c0-.3.3-.5.5-.5h.7l11.4 11V98.7c0-.3.2-.5.5-.5h3.4c.3 0 .5.3.5.5v19.2c0 .3-.3.5-.5.5h-.5c-.1 0-.3-.1-.4-.1L270 106.9v10.7c0 .3-.2.5-.5.5H266c-.3 0-.5-.3-.5-.5V98.4zM286.4 117.4l8.9-19.2c.1-.2.3-.3.5-.3h.3c.2 0 .4.1.5.3l8.9 19.2c.2.4-.1.7-.5.7h-3.2c-.5 0-.7-.2-1-.7l-1-2.3H292l-1 2.3c-.1.3-.5.7-1 .7h-3.1c-.4 0-.7-.3-.5-.7zm11.8-6.1l-2.2-4.7-2.1 4.7h4.3zM309.3 98.7c0-.3.2-.5.5-.5h3.4c.3 0 .5.3.5.5V114h6.8c.3 0 .5.3.5.5v3.1c0 .3-.2.5-.5.5h-10.7c-.3 0-.5-.3-.5-.5V98.7z"/>
    </g>
    <g fill="#525352">
        <path d="M124 287.9c2.9 0 5 .9 6.9 2.7.3.2.3.6 0 .8l-2.2 2.3c-.2.2-.5.2-.7 0-1.1-.9-2.5-1.5-3.9-1.5-3.2 0-5.6 2.7-5.6 5.9s2.4 5.8 5.6 5.8c1.3 0 2.8-.5 3.8-1.4.2-.2.6-.2.7 0l2.2 2.4c.2.2.2.6 0 .8-1.9 1.9-4.4 2.8-6.9 2.8-5.7 0-10.3-4.5-10.3-10.3.1-5.7 4.7-10.3 10.4-10.3zM135.8 288.7c0-.3.3-.5.5-.5h3.4c.3 0 .5.3.5.5v7.2h8.2v-7.2c0-.3.2-.5.5-.5h3.4c.3 0 .5.3.5.5v18.9c0 .3-.3.5-.5.5H149c-.3 0-.5-.3-.5-.5v-7.5h-8.2v7.5c0 .3-.2.5-.5.5h-3.4c-.3 0-.5-.3-.5-.5v-18.9zM156.7 307.4l8.9-19.2c.1-.2.3-.3.5-.3h.3c.2 0 .4.1.5.3l8.9 19.2c.2.4-.1.7-.5.7h-3.2c-.5 0-.7-.2-1-.7l-1-2.3h-7.8l-1 2.3c-.1.3-.5.7-1 .7h-3.1c-.4.1-.7-.3-.5-.7zm11.8-6.1l-2.2-4.7-2.1 4.7h4.3zM179.6 288.7c0-.3.2-.5.5-.5h3.4c.3 0 .5.3.5.5V304h6.8c.3 0 .5.3.5.5v3.1c0 .3-.2.5-.5.5h-10.7c-.3 0-.5-.3-.5-.5v-18.9zM195.6 288.7c0-.3.2-.5.5-.5h3.4c.3 0 .5.3.5.5V304h6.8c.3 0 .5.3.5.5v3.1c0 .3-.2.5-.5.5h-10.7c-.3 0-.5-.3-.5-.5v-18.9zM211.7 288.7c0-.3.2-.5.5-.5H224c.3 0 .5.3.5.5v3.1c0 .3-.2.5-.5.5h-7.9v3.5h6.5c.3 0 .5.3.5.5v3.1c0 .3-.3.5-.5.5h-6.5v3.9h7.9c.3 0 .5.3.5.5v3.1c0 .3-.2.5-.5.5h-11.8c-.3 0-.5-.3-.5-.5v-18.7zM229.8 288.4c0-.3.3-.5.5-.5h.7l11.4 11v-10.1c0-.3.2-.5.5-.5h3.4c.3 0 .5.3.5.5V308c0 .3-.3.5-.5.5h-.3c-.1 0-.3-.1-.4-.1L234.3 297v10.7c0 .3-.2.5-.5.5h-3.4c-.3 0-.5-.3-.5-.5l-.1-19.3zM262.2 287.9c2.4 0 5 1 7 2.7.3.2.3.5.1.8l-2.3 2.4c-.2.2-.5.2-.8 0-1.1-1-2.3-1.4-3.7-1.4-3.1 0-5.6 2.6-5.6 5.8 0 3.1 2.5 5.7 5.7 5.7.8 0 1.7-.1 2.5-.5v-1.7h-1.8c-.3 0-.5-.2-.5-.5v-2.8c0-.3.2-.5.5-.5h5.7c.3 0 .5.3.5.5v7.7c0 .1-.1.4-.2.5 0 0-2.9 1.9-7.1 1.9-5.7 0-10.3-4.5-10.3-10.2 0-5.8 4.6-10.4 10.3-10.4zM274.8 288.7c0-.3.2-.5.5-.5h11.8c.3 0 .5.3.5.5v3.1c0 .3-.2.5-.5.5h-7.9v3.5h6.5c.3 0 .5.3.5.5v3.1c0 .3-.3.5-.5.5h-6.5v3.9h7.9c.3 0 .5.3.5.5v3.1c0 .3-.2.5-.5.5h-11.8c-.3 0-.5-.3-.5-.5v-18.7z"/>
    </g>
    <g fill="#525352">
        <path d="M23.2 219.8c0-1.5 0-2.9-.1-3.9-.1-1.1-.3-2-.5-2.8-.3-.8-.6-1.5-1-2.1-.4-.6-.9-1.4-1.5-2.1-1.3-1.5-2.6-3-3.9-4.3-1.3-1.3-2.6-2.7-4-4-1.4-1.3-2.8-2.7-4.2-4.2-1.4-1.5-2.9-3.2-4.4-5.1-1.7-2-2.7-4-3-6.1-.5-2.2-.6-4.7-.6-7.7v-15.8c0-11.7 5.5-17.5 16.5-17.5 5.9 0 10.1 1.4 12.5 4.3 2.4 2.9 3.6 7.3 3.6 13.2V181h-9.1v-18c0-2.7-.4-4.8-1.4-6.4-.9-1.6-2.7-2.4-5.3-2.4-4.6 0-6.8 2.5-6.8 7.6v15.7c0 2.2.1 3.9.5 4.9.3 1 .9 2.1 1.9 3.3 2.6 3.3 5.2 6.1 7.9 8.6s5.4 5.4 8.2 8.6c1.9 2.2 3.1 4.6 3.7 7 .6 2.4.9 5.7.9 9.9V235c0 5.7-1.3 10-3.8 13s-6.8 4.5-12.7 4.5c-5.8 0-9.9-1.5-12.6-4.5-2.6-3-3.9-7.3-3.9-13v-22.5h9.4v21.1c0 2.8.5 5 1.5 6.7 1 1.7 2.8 2.6 5.3 2.6s4.3-.7 5.3-2c1.1-1.3 1.6-3.3 1.6-5.9v-15.2zM44.4 251.2v-106H61c6.2 0 10.8 1.5 13.8 4.6 3 3.1 4.5 7.9 4.5 14.5v17.4c0 6.7-1.5 11.5-4.4 14.5-2.9 3-7.5 4.5-13.7 4.5h-6.9V251h-9.9zm25-86.7c0-3.2-.6-5.5-1.9-7-1.3-1.5-3.5-2.3-6.6-2.3h-6.7v36.2H61c2.8 0 4.9-.7 6.3-2.2 1.4-1.5 2.1-3.8 2.1-7.1v-17.6zM111.4 251.2l-2.3-17.8H93.2l-2.3 17.8h-9.5l14.5-106h11.5l13.8 106h-9.8zm-3.5-26.7c-1.1-9.1-2.2-18.1-3.3-27.1-1.1-9-2.2-18-3.2-27.2-1.1 9.2-2.3 18.3-3.4 27.2-1.2 9-2.3 18-3.5 27.1h13.4zM152.3 212.4h8.9v21.9c0 6.2-1.2 10.8-3.7 13.7-2.4 3-6.4 4.4-11.8 4.4-11.2 0-16.9-6-16.9-17.9v-72.1c0-12.2 5.6-18.3 16.9-18.3 10.3 0 15.5 6 15.5 18v18.8h-8.9v-18.7c0-2.8-.5-4.9-1.4-6.2-1-1.3-2.7-2-5.2-2-4.7 0-7 2.7-7 8.2v72.1c0 5.6 2.3 8.4 7 8.4 2.4 0 4.1-.7 5.1-2.1 1-1.4 1.5-3.5 1.5-6.3v-21.9zM172.6 251.2v-106h28.1v9.9h-18.3v37.1h12.9v9.9h-12.9v39.4h18.9v9.7h-28.7zM259.4 251.2l-2.3-17.8h-15.8l-2.3 17.8h-9.5l14.6-106h11.5l13.8 106h-10zm-3.5-26.7c-1.1-9.1-2.2-18.1-3.3-27.1-1.1-9-2.2-18-3.2-27.2-1.1 9.2-2.3 18.3-3.4 27.2-1.2 9-2.3 18-3.5 27.1h13.4zM279 251.2v-106h16.5c6.2 0 10.8 1.5 13.8 4.6 3 3.1 4.5 7.9 4.5 14.5v17.4c0 6.7-1.5 11.5-4.4 14.5-2.9 3-7.5 4.5-13.7 4.5h-6.9V251H279zm25-86.7c0-3.2-.6-5.5-1.9-7-1.3-1.5-3.5-2.3-6.6-2.3h-6.7v36.2h6.8c2.8 0 4.9-.7 6.3-2.2 1.4-1.5 2.1-3.8 2.1-7.1v-17.6zM323.7 251.2v-106h16.5c6.2 0 10.8 1.5 13.8 4.6 3 3.1 4.5 7.9 4.5 14.5v17.4c0 6.7-1.5 11.5-4.4 14.5-2.9 3-7.5 4.5-13.7 4.5h-6.9V251h-9.8zm24.9-86.7c0-3.2-.6-5.5-1.9-7-1.3-1.5-3.5-2.3-6.6-2.3h-6.7v36.2h6.8c2.8 0 4.9-.7 6.3-2.2 1.4-1.5 2.1-3.8 2.1-7.1v-17.6zM390.2 219.8c0-1.5 0-2.9-.1-3.9-.1-1.1-.3-2-.5-2.8-.3-.8-.6-1.5-1-2.1-.4-.6-1-1.4-1.5-2.1-1.3-1.5-2.6-3-3.9-4.3-1.3-1.3-2.6-2.7-4-4-1.4-1.3-2.8-2.7-4.2-4.2-1.4-1.5-2.9-3.2-4.4-5.1-1.7-2-2.7-4-3-6.1-.3-2.1-.4-4.7-.4-7.7v-15.8c0-11.7 5.5-17.5 16.5-17.5 5.9 0 10.1 1.4 12.5 4.3 2.4 2.9 3.6 7.3 3.6 13.2V181h-9.1v-18c0-2.7-.5-4.8-1.3-6.4-.9-1.6-2.7-2.4-5.3-2.4-4.5 0-6.8 2.5-6.8 7.6v15.7c0 2.2.2 3.9.5 4.9.3 1 .9 2.1 1.9 3.3 2.6 3.3 5.2 6.1 7.9 8.6s5.4 5.4 8.2 8.6c1.9 2.2 3.1 4.6 3.7 7 .6 2.4.9 5.7.9 9.9V235c0 5.7-1.3 10-3.8 13s-6.8 4.5-12.7 4.5c-5.7 0-9.9-1.5-12.6-4.5-2.6-3-3.9-7.3-3.9-13v-22.5h9.4v21.1c0 2.8.5 5 1.5 6.7 1 1.7 2.8 2.6 5.3 2.6s4.3-.7 5.3-2c1.1-1.3 1.6-3.3 1.6-5.9v-15.2z"/>
    </g>
</svg>