<svg xmlns="http://www.w3.org/2000/svg" viewBox="0 0 496.67 496.67">
    <defs>
        <style>.spa-1{fill:#060a0b;}.spa-2{fill:#fff;}.spa-3{fill:#f5472e;}</style>
    </defs>
    <circle class="spa-1" cx="248.33" cy="248.33" r="248.33"/>
    <path class="spa-2"
          d="M248.43,436.68a188.83,188.83,0,0,1-163.8-95.4,2.35,2.35,0,0,1,4.1-2.3,183.73,183.73,0,0,0,318.9,1.1,2.35,2.35,0,0,1,4.1,2.3A189.47,189.47,0,0,1,248.43,436.68ZM77.83,176.38a2.92,2.92,0,0,1-.9-.2,2.35,2.35,0,0,1-1.2-3.1,188.42,188.42,0,0,1,345.2-.5,2.35,2.35,0,0,1-4.3,1.9,183.79,183.79,0,0,0-336.7.5A2.17,2.17,0,0,1,77.83,176.38Zm290.4-43.7a25.6,25.6,0,1,1,25.6-25.6A25.65,25.65,0,0,1,368.23,132.68Zm0-45.9a20.3,20.3,0,1,0,20.3,20.3A20.31,20.31,0,0,0,368.23,86.78Zm26.3-5.3a2.35,2.35,0,0,1-1.7-4l7.5-7.5a2.33,2.33,0,1,1,3.3,3.3l-7.5,7.5a2.36,2.36,0,0,1-1.6.7ZM384,75.28a2.42,2.42,0,0,1-2.4-2.3v-7.3a2.35,2.35,0,0,1,4.7,0V73A2.2,2.2,0,0,1,384,75.28Zm24.7,17.5h-7a2.33,2.33,0,0,1-2.3-2.3,2.26,2.26,0,0,1,2.3-2.3h7a2.33,2.33,0,0,1,2.3,2.3A2.26,2.26,0,0,1,408.73,92.78Z"/>
    <path class="spa-3"
          d="M130.93,158.68a.54.54,0,0,1,.5-.5h3.4a.54.54,0,0,1,.5.5v18.9a.54.54,0,0,1-.5.5h-3.4a.54.54,0,0,1-.5-.5Zm10.8-.3a.54.54,0,0,1,.5-.5h.7l11.4,11v-10.2a.47.47,0,0,1,.5-.5h3.4a.54.54,0,0,1,.5.5v19.2a.54.54,0,0,1-.5.5h-.5c-.1,0-.3-.1-.4-.1L146,167v10.7a.47.47,0,0,1-.5.5h-3.4a.54.54,0,0,1-.5-.5Zm26.1,3.9h-4.1a.54.54,0,0,1-.5-.5v-3.1a.47.47,0,0,1,.5-.5h12.7a.54.54,0,0,1,.5.5v3.1a.47.47,0,0,1-.5.5h-4.1v15.3a.54.54,0,0,1-.5.5h-3.4a.54.54,0,0,1-.5-.5v-15.3Zm13.4-3.6a.47.47,0,0,1,.5-.5h11.8a.54.54,0,0,1,.5.5v3.1a.47.47,0,0,1-.5.5h-7.9v3.5h6.5a.54.54,0,0,1,.5.5v3.1a.54.54,0,0,1-.5.5h-6.5v3.9h7.9a.54.54,0,0,1,.5.5v3.1a.47.47,0,0,1-.5.5h-11.8a.54.54,0,0,1-.5-.5Zm18.2,0a.47.47,0,0,1,.5-.5h8.5a6.1,6.1,0,0,1,2,11.9l3.9,7.3a.52.52,0,0,1-.5.8h-3.7a.55.55,0,0,1-.5-.3l-3.8-7.6h-2v7.3a.54.54,0,0,1-.5.5h-3.4a.54.54,0,0,1-.5-.5Zm8.7,8a2.31,2.31,0,0,0,2.2-2.3,2.22,2.22,0,0,0-2.2-2.2h-4.2v4.5Zm11.8-8.3a.54.54,0,0,1,.5-.5h.7l11.4,11v-10.2a.47.47,0,0,1,.5-.5h3.4a.54.54,0,0,1,.5.5v19.2a.54.54,0,0,1-.5.5h-.3c-.1,0-.3-.1-.4-.1L224.43,167v10.7a.47.47,0,0,1-.5.5h-3.4a.54.54,0,0,1-.5-.5Zm21,19,8.9-19.2a.55.55,0,0,1,.5-.3h.3a.55.55,0,0,1,.5.3l8.9,19.2c.2.4-.1.7-.5.7h-3.2c-.5,0-.7-.2-1-.7l-1-2.3h-7.8l-1,2.3a1.13,1.13,0,0,1-1,.7h-3.1c-.4,0-.7-.3-.5-.7Zm11.7-6.1-2.2-4.7-2.1,4.7Zm12.8-9h-4.1a.54.54,0,0,1-.5-.5v-3.1a.47.47,0,0,1,.5-.5H274a.54.54,0,0,1,.5.5v3.1a.47.47,0,0,1-.5.5h-4.1v15.3a.54.54,0,0,1-.5.5H266a.54.54,0,0,1-.5-.5v-15.3Zm13.4-3.6a.54.54,0,0,1,.5-.5h3.4a.54.54,0,0,1,.5.5v18.9a.54.54,0,0,1-.5.5h-3.4a.54.54,0,0,1-.5-.5Zm19.6-.8a10.3,10.3,0,1,1-10.3,10.3A10.29,10.29,0,0,1,298.43,157.88Zm0,16a5.7,5.7,0,1,0-5.7-5.7A5.76,5.76,0,0,0,298.43,173.88Zm15.2-15.5a.54.54,0,0,1,.5-.5h.7l11.4,11v-10.2a.47.47,0,0,1,.5-.5h3.4a.54.54,0,0,1,.5.5v19.2a.54.54,0,0,1-.5.5h-.5c-.1,0-.3-.1-.4-.1l-11.1-11.4v10.7a.47.47,0,0,1-.5.5h-3.5a.54.54,0,0,1-.5-.5Zm20.9,19,8.9-19.2a.55.55,0,0,1,.5-.3h.3a.55.55,0,0,1,.5.3l8.9,19.2c.2.4-.1.7-.5.7h-3.2c-.5,0-.7-.2-1-.7l-1-2.3h-7.8l-1,2.3a1.13,1.13,0,0,1-1,.7H335C334.63,178.08,334.33,177.78,334.53,177.38Zm11.8-6.1-2.2-4.7-2.1,4.7h4.3Zm11.1-12.6a.47.47,0,0,1,.5-.5h3.4a.54.54,0,0,1,.5.5V174h6.8a.54.54,0,0,1,.5.5v3.1a.47.47,0,0,1-.5.5h-10.7a.54.54,0,0,1-.5-.5v-18.9Z"/>
    <path class="spa-3"
          d="M172.13,347.88a9.34,9.34,0,0,1,6.9,2.7.47.47,0,0,1,0,.8l-2.2,2.3a.48.48,0,0,1-.7,0,6.32,6.32,0,0,0-3.9-1.5,5.72,5.72,0,0,0-5.6,5.9,5.64,5.64,0,0,0,5.6,5.8,5.94,5.94,0,0,0,3.8-1.4c.2-.2.6-.2.7,0l2.2,2.4a.61.61,0,0,1,0,.8,9.68,9.68,0,0,1-6.9,2.8,10.22,10.22,0,0,1-10.3-10.3,10.44,10.44,0,0,1,10.4-10.3Zm11.8.8a.54.54,0,0,1,.5-.5h3.4a.54.54,0,0,1,.5.5v7.2h8.2v-7.2a.47.47,0,0,1,.5-.5h3.4a.54.54,0,0,1,.5.5v18.9a.54.54,0,0,1-.5.5h-3.3a.54.54,0,0,1-.5-.5v-7.5h-8.2v7.5a.47.47,0,0,1-.5.5h-3.4a.54.54,0,0,1-.5-.5v-18.9Zm20.9,18.7,8.9-19.2a.55.55,0,0,1,.5-.3h.3a.55.55,0,0,1,.5.3l8.9,19.2c.2.4-.1.7-.5.7h-3.2c-.5,0-.7-.2-1-.7l-1-2.3h-7.8l-1,2.3a1.13,1.13,0,0,1-1,.7h-3.1a.46.46,0,0,1-.5-.7Zm11.8-6.1-2.2-4.7-2.1,4.7Zm11.1-12.6a.47.47,0,0,1,.5-.5h3.4a.54.54,0,0,1,.5.5V364h6.8a.54.54,0,0,1,.5.5v3.1a.47.47,0,0,1-.5.5h-10.7a.54.54,0,0,1-.5-.5Zm16,0a.47.47,0,0,1,.5-.5h3.4a.54.54,0,0,1,.5.5V364h6.8a.54.54,0,0,1,.5.5v3.1a.47.47,0,0,1-.5.5h-10.7a.54.54,0,0,1-.5-.5Zm16.1,0a.47.47,0,0,1,.5-.5h11.8a.54.54,0,0,1,.5.5v3.1a.47.47,0,0,1-.5.5h-7.9v3.5h6.5a.54.54,0,0,1,.5.5v3.1a.54.54,0,0,1-.5.5h-6.5v3.9h7.9a.54.54,0,0,1,.5.5v3.1a.47.47,0,0,1-.5.5h-11.8a.54.54,0,0,1-.5-.5Zm18.1-.3a.54.54,0,0,1,.5-.5h.7l11.4,11v-10.1a.47.47,0,0,1,.5-.5h3.4a.54.54,0,0,1,.5.5V368a.54.54,0,0,1-.5.5h-.3c-.1,0-.3-.1-.4-.1L282.43,357v10.7a.47.47,0,0,1-.5.5h-3.4a.54.54,0,0,1-.5-.5l-.1-19.3Zm32.4-.5a11.16,11.16,0,0,1,7,2.7.52.52,0,0,1,.1.8l-2.3,2.4a.6.6,0,0,1-.8,0,5.2,5.2,0,0,0-3.7-1.4,5.75,5.75,0,0,0,.1,11.5,5.59,5.59,0,0,0,2.5-.5v-1.7h-1.8a.47.47,0,0,1-.5-.5v-2.8a.47.47,0,0,1,.5-.5h5.7a.54.54,0,0,1,.5.5v7.7a1.06,1.06,0,0,1-.2.5,14,14,0,0,1-7.1,1.9,10.2,10.2,0,0,1-10.3-10.2,10.31,10.31,0,0,1,10.3-10.4Zm12.6.8a.47.47,0,0,1,.5-.5h11.8a.54.54,0,0,1,.5.5v3.1a.47.47,0,0,1-.5.5h-7.9v3.5h6.5a.54.54,0,0,1,.5.5v3.1a.54.54,0,0,1-.5.5h-6.5v3.9h7.9a.54.54,0,0,1,.5.5v3.1a.47.47,0,0,1-.5.5h-11.8a.54.54,0,0,1-.5-.5Z"/>
    <path class="spa-2"
          d="M71.33,279.78c0-1.5,0-2.9-.1-3.9a17.77,17.77,0,0,0-.5-2.8,10.24,10.24,0,0,0-1-2.1,21.17,21.17,0,0,0-1.5-2.1c-1.3-1.5-2.6-3-3.9-4.3s-2.6-2.7-4-4-2.8-2.7-4.2-4.2-2.9-3.2-4.4-5.1a12.05,12.05,0,0,1-3-6.1,35.38,35.38,0,0,1-.6-7.7v-15.8c0-11.7,5.5-17.5,16.5-17.5,5.9,0,10.1,1.4,12.5,4.3s3.6,7.3,3.6,13.2V241h-9.1V223a11.92,11.92,0,0,0-1.4-6.4c-.9-1.6-2.7-2.4-5.3-2.4-4.6,0-6.8,2.5-6.8,7.6v15.7a15.18,15.18,0,0,0,.5,4.9,9.53,9.53,0,0,0,1.9,3.3,74,74,0,0,0,7.9,8.6,114.53,114.53,0,0,1,8.2,8.6,17,17,0,0,1,3.7,7,42.72,42.72,0,0,1,.9,9.9V295c0,5.7-1.3,10-3.8,13s-6.8,4.5-12.7,4.5-9.9-1.5-12.6-4.5-3.9-7.3-3.9-13v-22.5h9.4v21.1a13,13,0,0,0,1.5,6.7c1,1.7,2.8,2.6,5.3,2.6s4.3-.7,5.3-2,1.6-3.3,1.6-5.9v-15.2Zm21.2,31.4v-106h16.6c6.2,0,10.8,1.5,13.8,4.6s4.5,7.9,4.5,14.5v17.4c0,6.7-1.5,11.5-4.4,14.5s-7.5,4.5-13.7,4.5h-6.9V311h-9.9Zm25-86.7c0-3.2-.6-5.5-1.9-7s-3.5-2.3-6.6-2.3h-6.7v36.2h6.8c2.8,0,4.9-.7,6.3-2.2s2.1-3.8,2.1-7.1v-17.6Zm42,86.7-2.3-17.8h-15.9l-2.3,17.8h-9.5l14.5-106h11.5l13.8,106Zm-3.5-26.7c-1.1-9.1-2.2-18.1-3.3-27.1s-2.2-18-3.2-27.2c-1.1,9.2-2.3,18.3-3.4,27.2s-2.3,18-3.5,27.1Zm44.4-12.1h8.9v21.9c0,6.2-1.2,10.8-3.7,13.7s-6.4,4.4-11.8,4.4c-11.2,0-16.9-6-16.9-17.9v-72.1c0-12.2,5.6-18.3,16.9-18.3,10.3,0,15.5,6,15.5,18v18.8h-8.9v-18.7c0-2.8-.5-4.9-1.4-6.2s-2.7-2-5.2-2c-4.7,0-7,2.7-7,8.2v72.1c0,5.6,2.3,8.4,7,8.4q3.6,0,5.1-2.1t1.5-6.3v-21.9Zm20.3,38.8v-106h28.1v9.9h-18.3v37.1h12.9v9.9h-12.9v39.4h18.9v9.7h-28.7Zm86.8,0-2.3-17.8h-15.8l-2.3,17.8h-9.5l14.6-106h11.5l13.8,106Zm-3.5-26.7c-1.1-9.1-2.2-18.1-3.3-27.1s-2.2-18-3.2-27.2c-1.1,9.2-2.3,18.3-3.4,27.2s-2.3,18-3.5,27.1Zm23.1,26.7v-106h16.5c6.2,0,10.8,1.5,13.8,4.6s4.5,7.9,4.5,14.5v17.4c0,6.7-1.5,11.5-4.4,14.5s-7.5,4.5-13.7,4.5h-6.9V311h-9.8Zm25-86.7c0-3.2-.6-5.5-1.9-7s-3.5-2.3-6.6-2.3h-6.7v36.2h6.8c2.8,0,4.9-.7,6.3-2.2s2.1-3.8,2.1-7.1v-17.6Zm19.7,86.7v-106h16.5c6.2,0,10.8,1.5,13.8,4.6s4.5,7.9,4.5,14.5v17.4c0,6.7-1.5,11.5-4.4,14.5s-7.5,4.5-13.7,4.5h-6.9V311h-9.8Zm24.9-86.7c0-3.2-.6-5.5-1.9-7s-3.5-2.3-6.6-2.3h-6.7v36.2h6.8c2.8,0,4.9-.7,6.3-2.2s2.1-3.8,2.1-7.1v-17.6Zm41.6,55.3c0-1.5,0-2.9-.1-3.9a17.77,17.77,0,0,0-.5-2.8,10.24,10.24,0,0,0-1-2.1c-.4-.6-1-1.4-1.5-2.1-1.3-1.5-2.6-3-3.9-4.3s-2.6-2.7-4-4-2.8-2.7-4.2-4.2-2.9-3.2-4.4-5.1a12,12,0,0,1-3-6.1,56.87,56.87,0,0,1-.4-7.7v-15.8c0-11.7,5.5-17.5,16.5-17.5,5.9,0,10.1,1.4,12.5,4.3s3.6,7.3,3.6,13.2V241h-9.1V223a14.21,14.21,0,0,0-1.3-6.4c-.9-1.6-2.7-2.4-5.3-2.4-4.5,0-6.8,2.5-6.8,7.6v15.7a18.72,18.72,0,0,0,.5,4.9,9.53,9.53,0,0,0,1.9,3.3,74,74,0,0,0,7.9,8.6,114.54,114.54,0,0,1,8.2,8.6,17,17,0,0,1,3.7,7,42.72,42.72,0,0,1,.9,9.9V295c0,5.7-1.3,10-3.8,13s-6.8,4.5-12.7,4.5q-8.55,0-12.6-4.5c-2.6-3-3.9-7.3-3.9-13v-22.5h9.4v21.1a13,13,0,0,0,1.5,6.7c1,1.7,2.8,2.6,5.3,2.6s4.3-.7,5.3-2,1.6-3.3,1.6-5.9v-15.2Z"/>
</svg>