<?xml version="1.0" standalone="no"?>
<!DOCTYPE svg PUBLIC "-//W3C//DTD SVG 20010904//EN"
 "http://www.w3.org/TR/2001/REC-SVG-20010904/DTD/svg10.dtd">
<svg version="1.0" xmlns="http://www.w3.org/2000/svg"
 width="261.000000pt" height="261.000000pt" viewBox="0 0 261.000000 261.000000"
 preserveAspectRatio="xMidYMid meet">
<metadata>
Created by potrace 1.11, written by Peter Selinger 2001-2013
</metadata>
<g transform="translate(0.000000,261.000000) scale(0.100000,-0.100000)"
fill="#000000" stroke="none">
<path d="M282 1303 l3 -1298 440 0 c376 1 454 3 535 18 413 77 761 343 945
722 141 292 163 660 59 973 -129 387 -452 704 -842 826 -165 52 -219 56 -698
56 l-444 0 2 -1297z m474 818 c32 -21 91 -66 129 -101 76 -68 143 -120 156
-120 4 0 11 9 14 20 10 33 30 23 58 -29 15 -27 38 -56 51 -64 13 -9 43 -33 68
-54 114 -96 200 -165 203 -161 1 1 14 27 29 56 14 28 32 52 40 52 28 0 66
-131 66 -226 0 -24 10 -78 21 -121 18 -65 21 -95 16 -197 -3 -67 -8 -130 -12
-142 -6 -20 -5 -20 77 -8 86 12 108 10 108 -11 0 -15 -38 -40 -185 -125 -60
-35 -143 -92 -183 -127 -95 -83 -228 -169 -300 -195 -79 -28 -157 -28 -209 2
-58 32 -77 72 -71 147 9 99 69 206 192 347 l49 57 -27 87 c-27 91 -33 137 -16
147 5 3 17 -9 26 -27 20 -40 63 -88 80 -88 21 0 48 91 58 196 l5 62 -44 11
c-24 6 -51 18 -60 27 -15 15 -14 18 14 35 52 32 49 76 -11 161 -16 23 -23 26
-38 18 -20 -11 -60 -14 -60 -5 0 4 7 20 16 37 15 29 15 31 -12 59 -45 47 -67
47 -121 2 -91 -75 -133 -98 -133 -74 0 6 16 36 35 68 19 32 35 68 35 81 0 32
-32 92 -87 159 -25 32 -50 64 -56 71 -20 25 20 12 79 -27z"/>
</g>
</svg>
