<svg id="Layer_1" data-name="Layer 1" xmlns="http://www.w3.org/2000/svg" viewBox="0 0 469.9 100.56">
    <defs>
        <style>.logo-1{isolation:isolate;}</style>
    </defs>
    <title>dark_shark_logo_white</title>
    <g class="logo-1">
        <path class="logo-2"
              d="M122,37.85a17.24,17.24,0,0,1,7,1.44,18.65,18.65,0,0,1,5.77,3.84,16.75,16.75,0,0,1,3.84,5.77,17.24,17.24,0,0,1,1.44,7A17.81,17.81,0,0,1,138.53,63a17.67,17.67,0,0,1-9.61,9.61A17.24,17.24,0,0,1,122,74H111.86V38H122Zm0,29a10.87,10.87,0,0,0,0-21.75h-3V66.8Z"/>
    </g>
    <g class="logo-1">
        <path class="logo-2"
              d="M173.13,67.28h-14.9L154.87,74h-8L165.2,37.85h2.16L184.43,74H176.5Zm-3.48-7.21-3.72-8-4.09,8Z"/>
    </g>
    <g class="logo-1">
        <path class="logo-2"
              d="M211.58,74l-6.73-14.54h-3.6V73.89H194v-36h13.58a10.85,10.85,0,0,1,10.81,10.81,10.71,10.71,0,0,1-6.37,9.85L219.27,74Zm-10.33-29v7.21h6.37a3.6,3.6,0,0,0,0-7.21Z"/>
    </g>
    <g class="logo-1">
        <path class="logo-2" d="M242.94,57.43l-2.76,2.88V74H233V38h7.21V49.5l10.57-11.65h9.73L247.75,51.9l13,22h-8.65Z"/>
    </g>
    <g class="logo-1">
        <path class="logo-2"
              d="M292.8,58.63a16.89,16.89,0,0,1-5.41-2.28,10.21,10.21,0,0,1-4.69-8.17,9.42,9.42,0,0,1,2.64-7.33,12.56,12.56,0,0,1,8.41-3.6c5.29,0,8.17,1.92,10.81,3.6l1.2.72-3.72,6.13-1.32-.84c-2.28-1.44-3.84-2.52-7-2.52a5.74,5.74,0,0,0-3.24,1.32,2.19,2.19,0,0,0-.6,2c0,1.8,1.32,2.88,4.69,3.72l1.08.36a18.2,18.2,0,0,1,7.93,4.81,10.65,10.65,0,0,1,2.88,7.09,11.19,11.19,0,0,1-2.88,7.21,10.94,10.94,0,0,1-8.29,3.72,23.66,23.66,0,0,1-6.37-.84,21.92,21.92,0,0,1-8.65-5.41l5.29-4.93a12.48,12.48,0,0,0,9.73,4.09,4,4,0,0,0,4-3.6c0-1.92-2.16-3.72-6-5h-.12Z"/>
    </g>
    <g class="logo-1">
        <path class="logo-2" d="M339.54,37.85h7.21v36h-7.21v-15H326.2v15H319v-36h7.21V51.66h13.34Z"/>
    </g>
    <g class="logo-1">
        <path class="logo-2"
              d="M383,67.28h-14.9L364.77,74h-8L375.1,37.85h2.16L394.33,74H386.4Zm-3.48-7.21-3.72-8-4.09,8Z"/>
    </g>
    <g class="logo-1">
        <path class="logo-2"
              d="M422.2,74l-6.73-14.54h-3.6V73.89h-7.21v-36h13.58A10.85,10.85,0,0,1,429,48.66a10.71,10.71,0,0,1-6.37,9.85L429.89,74Zm-10.33-29v7.21h6.37a3.6,3.6,0,0,0,0-7.21Z"/>
    </g>
    <g class="logo-1">
        <path class="logo-2" d="M452,57.43l-2.76,2.88V74H442V38h7.21V49.5l10.57-11.65h9.73L456.92,51.9l13,22h-8.65Z"/>
    </g>
    <path class="logo-2"
          d="M28.84,0H0V100.56H28.84A50.2,50.2,0,0,0,79.06,50.34h0A50.3,50.3,0,0,0,28.84,0Zm17.3,68.84h0C41,73.53,30.28,83,23.31,78.46c-5.17-3.36-.24-12,2.64-15.74l2.16-2.52a32.61,32.61,0,0,0,2.28-3c-.72-1.92-3.24-8.77-1.56-8.89.6,0,.12,2.64,4.09,4.93,1.32-2.4,2.28-5.65,2.16-10.69h0S31.6,42.17,30.88,41s0,0,1.44-1.2a2.84,2.84,0,0,0,1.08-2.64h0a23.82,23.82,0,0,0-2.28-3.72l-.48-.72s-2.4,1.2-2.76.72,1.44-2.4.84-3-1.44-1.32-2.16-2a1.83,1.83,0,0,0-2.4,0c-1.92,1.68-5.53,4.69-6,4.09s2.88-4.33,2.76-6c-.24-2.76-6.13-9.37-6.13-9.37.72-.48,4.69,2.28,7.93,5.17a39.76,39.76,0,0,0,4.93,4.21l1.8,1.08.72-1.8c.12-.12.24-.24.36-.12a.12.12,0,0,1,.12.12l2.28,4a38.65,38.65,0,0,1,4.93,3.84c2.16,1.68,4.33,3.36,6.37,5.29h0l2.28-4.57c.12-.24.36-.24.6-.12a.12.12,0,0,1,.12.12,16.37,16.37,0,0,1,1.92,10.33h0c3.84,9.61.6,16.7,1,17.06s6.85-1.44,7.57-.48S50.22,66.08,46.14,68.84Z"/>
</svg>