<svg xmlns="http://www.w3.org/2000/svg" viewBox="0 0 130 130">
    <defs>
        <style>
            .software-1,.software-3{fill:none;stroke-linecap:round;stroke-miterlimit:10;stroke-width:2.04px;}
        </style>
    </defs>
    <g>
        <path class="software-1" d="M14.07,89V31.5a4,4,0,0,1,4-4H104a4,4,0,0,1,4,4V65"/>
        <line class="software-1" x1="14.07" y1="34.02" x2="101.32" y2="34.02"/>
        <rect class="software-2" x="18.64" y="29.48" width="2.68" height="2.68"/>
        <rect class="software-2" x="22.67" y="29.48" width="2.68" height="2.68"/>
        <rect class="software-2" x="26.7" y="29.48" width="2.68" height="2.68"/>
        <line class="software-1" x1="2.5" y1="93.97" x2="30.31" y2="93.97"/>
        <line class="software-1" x1="119.94" y1="93.97" x2="127.5" y2="93.97"/>
        <line class="software-3" x1="21.2" y1="102.54" x2="63.14" y2="102.54"/>
        <line class="software-1" x1="35.11" y1="93.97" x2="64.19" y2="93.97"/>
        <line class="software-1" x1="57.57" y1="53.89" x2="78.97" y2="53.89"/>
        <line class="software-1" x1="33.96" y1="82.22" x2="55.35" y2="82.22"/>
        <line class="software-1" x1="83.88" y1="53.89" x2="96.74" y2="53.89"/>
        <line class="software-1" x1="72.24" y1="47.13" x2="91.91" y2="47.13"/>
        <line class="software-1" x1="71.63" y1="60.64" x2="81.46" y2="60.64"/>
        <line class="software-1" x1="57.37" y1="60.64" x2="67.2" y2="60.64"/>
        <line class="software-1" x1="42.02" y1="75.18" x2="51.85" y2="75.18"/>
        <line class="software-1" x1="57.37" y1="47.13" x2="67.2" y2="47.13"/>
        <line class="software-1" x1="88.97" y1="60.64" x2="93.36" y2="60.64"/>
        <line class="software-1" x1="21.71" y1="75.18" x2="36.57" y2="75.18"/>
        <line class="software-1" x1="21.71" y1="82.22" x2="29.14" y2="82.22"/>
        <path class="software-1"
              d="M97.69,102.17H71a3.63,3.63,0,0,1-3.63-3.63V73.1A3.63,3.63,0,0,1,71,69.47h40.43A3.63,3.63,0,0,1,115,73.1V98.54"/>
        <path class="software-1"
              d="M84.67,69.47h26.72A3.63,3.63,0,0,1,115,73.1V98.54a3.63,3.63,0,0,1-3.63,3.63H71a3.63,3.63,0,0,1-3.63-3.63V73.1"/>
        <line class="software-1" x1="67.97" y1="77.11" x2="115.02" y2="77.11"/>
        <polyline class="software-1" points="37.79 65.53 25.16 65.53 25.16 47.13 46.94 47.13 46.94 56.87"/>
        <line class="software-1" x1="46.94" y1="56.87" x2="37.79" y2="65.53"/>
        <line class="software-1" x1="37.79" y1="56.87" x2="46.94" y2="56.87"/>
        <line class="software-1" x1="37.79" y1="65.53" x2="37.79" y2="56.87"/>
        <line class="software-1" x1="97.64" y1="86.29" x2="101.51" y2="90.17"/>
        <line class="software-1" x1="97.64" y1="94.04" x2="101.51" y2="90.17"/>
        <line class="software-1" x1="82.85" y1="86.29" x2="78.98" y2="90.17"/>
        <line class="software-1" x1="82.85" y1="94.04" x2="78.98" y2="90.17"/>
        <line class="software-1" x1="91.73" y1="84.87" x2="88.75" y2="94.3"/>
    </g>
</svg>