<svg xmlns="http://www.w3.org/2000/svg" viewBox="0 0 130 130">
    <defs>
        <style>
            .web-1,.web-3,.web-4,.web-5{fill:none;}.web-1,.web-3,.web-5{stroke-linecap:round;}.web-1,.web-3,.web-4{stroke-miterlimit:10;}.web-1,.web-3{stroke-width:2.04px;}.web-4,.web-5{stroke-width:2.04px;}.web-5{stroke-linejoin:round;}
        </style>
    </defs>
    <g>
        <path class="web-1" d="M14.07,89V31.5a4,4,0,0,1,4-4H104a4,4,0,0,1,4,4V65"/>
        <line class="web-1" x1="14.07" y1="34.02" x2="101.32" y2="34.02"/>
        <rect class="web-2" x="18.64" y="29.48" width="2.68" height="2.68"/>
        <rect class="web-2" x="22.67" y="29.48" width="2.68" height="2.68"/>
        <rect class="web-2" x="26.7" y="29.48" width="2.68" height="2.68"/>
        <line class="web-1" x1="2.5" y1="93.97" x2="30.31" y2="93.97"/>
        <line class="web-1" x1="119.94" y1="93.97" x2="127.5" y2="93.97"/>
        <line class="web-3" x1="21.2" y1="102.54" x2="63.14" y2="102.54"/>
        <line class="web-1" x1="35.11" y1="93.97" x2="64.19" y2="93.97"/>
        <line class="web-1" x1="65.2" y1="53.89" x2="86.59" y2="53.89"/>
        <line class="web-1" x1="33.96" y1="85.82" x2="55.35" y2="85.82"/>
        <line class="web-1" x1="91.51" y1="53.89" x2="104.37" y2="53.89"/>
        <line class="web-1" x1="79.86" y1="47.13" x2="99.54" y2="47.13"/>
        <line class="web-1" x1="79.26" y1="60.64" x2="89.09" y2="60.64"/>
        <line class="web-1" x1="65" y1="60.64" x2="74.83" y2="60.64"/>
        <line class="web-1" x1="65" y1="47.13" x2="74.83" y2="47.13"/>
        <line class="web-1" x1="45.39" y1="79.48" x2="55.22" y2="79.48"/>
        <line class="web-1" x1="21.18" y1="79.48" x2="39.03" y2="79.48"/>
        <line class="web-1" x1="96.6" y1="60.64" x2="100.99" y2="60.64"/>
        <line class="web-1" x1="21.71" y1="85.82" x2="29.14" y2="85.82"/>
        <path class="web-1"
              d="M97.69,102.17H71a3.63,3.63,0,0,1-3.63-3.63V73.1A3.63,3.63,0,0,1,71,69.47h40.43A3.63,3.63,0,0,1,115,73.1V98.54"/>
        <path class="web-1"
              d="M84.67,69.47h26.72A3.63,3.63,0,0,1,115,73.1V98.54a3.63,3.63,0,0,1-3.63,3.63H71a3.63,3.63,0,0,1-3.63-3.63V73.1"/>
        <line class="web-1" x1="67.97" y1="77.11" x2="115.02" y2="77.11"/>
        <path class="web-4"
              d="M100.21,88.83l-1.75-.28a.55.55,0,0,1-.45-.41,6.65,6.65,0,0,0-.73-1.74.56.56,0,0,1,0-.61l1-1.45a.11.11,0,0,0,0-.14L97.06,83a.11.11,0,0,0-.08,0l-.06,0L95.5,84a.56.56,0,0,1-.61,0,6.74,6.74,0,0,0-1.79-.72.56.56,0,0,1-.42-.45l-.3-1.73a.11.11,0,0,0-.11-.09H90.52a.11.11,0,0,0-.11.09l-.29,1.76a.57.57,0,0,1-.41.45,6.59,6.59,0,0,0-1.73.74.57.57,0,0,1-.61,0l-1.44-1-.06,0a.11.11,0,0,0-.08,0l-1.23,1.25a.11.11,0,0,0,0,.14l1,1.45a.55.55,0,0,1,0,.61,6.64,6.64,0,0,0-.7,1.75.56.56,0,0,1-.45.42l-1.73.3a.11.11,0,0,0-.09.11v1.75a.11.11,0,0,0,.09.11l1.76.29a.57.57,0,0,1,.45.41,6.59,6.59,0,0,0,.74,1.73.57.57,0,0,1,0,.61l-1,1.44a.11.11,0,0,0,0,.14l1.25,1.23a.11.11,0,0,0,.08,0l.06,0,1.45-1a.55.55,0,0,1,.32-.11.57.57,0,0,1,.28.07,6.9,6.9,0,0,0,1.71.69.56.56,0,0,1,.41.45l.3,1.74a.11.11,0,0,0,.11.09h1.75a.11.11,0,0,0,.11-.09l.28-1.75a.55.55,0,0,1,.41-.45,6.65,6.65,0,0,0,1.74-.73.56.56,0,0,1,.61,0l1.45,1,.06,0a.11.11,0,0,0,.08,0l1.23-1.25a.11.11,0,0,0,0-.14l-1-1.44a.56.56,0,0,1,0-.61A6.65,6.65,0,0,0,98,91.51a.56.56,0,0,1,.45-.41l1.74-.3a.11.11,0,0,0,.09-.11V88.94A.11.11,0,0,0,100.21,88.83ZM91.5,93a3.17,3.17,0,1,1,3.15-3.19A3.17,3.17,0,0,1,91.5,93Z"/>
        <circle class="web-5" cx="38.2" cy="56.24" r="14.9"/>
        <path class="web-5" d="M36.9,71.09a19.09,19.09,0,0,1-6.56-14.84A19.09,19.09,0,0,1,36.91,41.4"/>
        <path class="web-5" d="M39.48,41.4A19.09,19.09,0,0,1,46,56.25a19.09,19.09,0,0,1-6.56,14.84"/>
        <line class="web-5" x1="23.3" y1="56.24" x2="53.09" y2="56.24"/>
        <line class="web-5" x1="38.2" y1="71.14" x2="38.2" y2="41.35"/>
        <line class="web-5" x1="26.1" y1="47.56" x2="50.3" y2="47.56"/>
        <line class="web-5" x1="26.1" y1="64.93" x2="50.3" y2="64.93"/>
    </g>
</svg>