<svg xmlns="http://www.w3.org/2000/svg" viewBox="0 0 130 130">
    <defs>
        <style>
            .webd-2,.webd-3{fill:none;stroke-linecap:round;stroke-width:2.03px;}.webd-2{stroke-miterlimit:10;}.webd-3{stroke-linejoin:round;}
        </style>
    </defs>
    <g>
        <path class="webd-1"
              d="M107.39,72.69v1.59H93.72a12.63,12.63,0,0,0,5.61-6.35H101V63.17H96.29v4.76h1.31A11,11,0,0,1,89.94,74V72.69H85.18V74a11,11,0,0,1-7.65-6.09h1.3V63.17H74.08v4.76H75.8a12.62,12.62,0,0,0,5.61,6.35H67.73V72.69H63v4.76h4.76V75.87H81.41a12.62,12.62,0,0,0-5.61,6.35H74.08V87h4.76V82.21h-1.3a11,11,0,0,1,7.65-6.09v1.33h4.76V76.12a11,11,0,0,1,7.65,6.09H96.29V87H101V82.21H99.32a12.63,12.63,0,0,0-5.61-6.35h13.68v1.59h4.76V72.69Zm-9.52-7.93h1.59v1.59H97.87ZM77.25,66.35H75.66V64.76h1.59ZM66.14,75.87H64.56V74.28h1.59Zm11.11,9.52H75.66V83.8h1.59Zm11.11-9.52H86.77V74.28h1.59Zm9.52,7.93h1.59v1.59H97.87Zm12.69-7.93H109V74.28h1.59Z"/>
        <path class="webd-1"
              d="M94.48,90.14h0l.29-.87L94.05,88,94,88,88.81,79h-2.5L81,88.23l-.6,1,.29.87h0l1.06,3.17H80.42v4.76H82v4.76H93.11V98.08H94.7V93.32H93.42Zm-7.71-8.74V85.5a3.17,3.17,0,1,0,1.59,0V81.41l4.69,8-1.29,3.88H83.37l-1.29-3.88ZM87.56,87A1.59,1.59,0,1,1,86,88.56,1.59,1.59,0,0,1,87.56,87Zm5.55,9.52H89.94v1.59h1.59v3.17H83.6V98.08h4.76V96.49H82V94.9H93.11Z"/>
        <path class="webd-2" d="M14.91,88.27V31.17a4,4,0,0,1,4-4h85.3a4,4,0,0,1,4,4V64.38"/>
        <line class="webd-2" x1="14.91" y1="33.28" x2="101.51" y2="33.28"/>
        <rect class="webd-1" x="19.44" y="29.14" width="2.66" height="2.66"/>
        <rect class="webd-1" x="23.44" y="29.14" width="2.66" height="2.66"/>
        <rect class="webd-1" x="27.44" y="29.14" width="2.66" height="2.66"/>
        <line class="webd-2" x1="2.5" y1="93.18" x2="30.1" y2="93.18"/>
        <line class="webd-2" x1="108.23" y1="93.18" x2="127.5" y2="93.18"/>
        <line class="webd-2" x1="21.99" y1="101.69" x2="63.61" y2="101.69"/>
        <line class="webd-2" x1="35.79" y1="93.18" x2="65.34" y2="93.18"/>
        <line class="webd-2" x1="67.68" y1="53.39" x2="96.79" y2="53.39"/>
        <line class="webd-2" x1="67.68" y1="46.69" x2="78.8" y2="46.69"/>
        <line class="webd-2" x1="82.24" y1="46.69" x2="96.79" y2="46.69"/>
        <path class="webd-3"
              d="M57.27,62q0,8.58-4.89,13.15T38.28,79.76H28.43V45H39.35q8.51,0,13.22,4.49T57.27,62Zm-7.65.19q0-11.2-9.89-11.2H35.8V73.67H39Q49.62,73.67,49.62,62.24Z"/>
    </g>
</svg>