<svg id="Layer_1" data-name="Layer 1" xmlns="http://www.w3.org/2000/svg" viewBox="0 0 150 60">
    <defs>
        <style>.amazon-1{fill:#f90;}.amazon-2{stroke:#000;stroke-width:0.59px;}</style>
    </defs>
    <title>1</title>
    <path class="amazon-1" d="M19.32,56.76,10.5,53.6V40.67l8.82,3V56.76Z"/>
    <path class="amazon-1" d="M20.93,56.76l8.82-3.16V40.67l-8.82,3V56.76Z"/>
    <path class="amazon-1" d="M11.4,39.71l8.92-2.51,8.28,2.67-8.28,2.81-8.92-3Z"/>
    <path class="amazon-1" d="M8.82,38.71,0,35.54V22.62l8.82,3V38.71Z"/>
    <path class="amazon-1" d="M10.44,38.71l8.82-3.16V22.62l-8.82,3V38.71Z"/>
    <path class="amazon-1" d="M.91,21.65l8.93-2.51,8.28,2.67L9.83,24.62l-8.93-3Z"/>
    <path class="amazon-1" d="M29.39,38.71l-8.82-3.16V22.62l8.82,3V38.71Z"/>
    <path class="amazon-1" d="M31,38.71l8.82-3.16V22.62l-8.82,3V38.71Z"/>
    <path class="amazon-1" d="M21.48,21.65l8.92-2.51,8.28,2.67-8.28,2.81-8.92-3Z"/>
    <path class="amazon-1" d="M39.89,20.65l-8.82-3.16V4.56l8.82,3V20.65Z"/>
    <path class="amazon-1" d="M41.51,20.65l8.82-3.16V4.56l-8.82,3V20.65Z"/>
    <path class="amazon-1" d="M32,3.59,40.9,1.08l8.28,2.67L40.9,6.56,32,3.59Z"/>
    <path class="amazon-1" d="M60.47,20.65l-8.82-3.16V4.56l8.82,3V20.65Z"/>
    <path class="amazon-1" d="M62.09,20.65l8.82-3.16V4.56l-8.82,3V20.65Z"/>
    <path class="amazon-1" d="M52.56,3.59l8.92-2.51,8.27,2.67L61.48,6.56l-8.92-3Z"/>
    <path d="M56,48.34,53,58.63H51.73L49.43,51l-2.11,7.64H46L42.92,48.34h1.59L46.76,56l2.13-7.67h1.17L52.38,56l2.3-7.69Z"/>
    <path class="amazon-2"
          d="M56,48.34,53,58.63H51.73L49.43,51l-2.11,7.64H46L42.92,48.34h1.59L46.76,56l2.13-7.67h1.17L52.38,56l2.3-7.69Z"/>
    <path d="M61.41,57.59a3.14,3.14,0,0,1-2.06-.82q-1-.81-1-3.15h7.47a6.28,6.28,0,0,0-1.25-4.17,4.11,4.11,0,0,0-3.24-1.39A4.36,4.36,0,0,0,58,49.57a5.73,5.73,0,0,0-1.35,4,5.67,5.67,0,0,0,1.3,3.89,4.31,4.31,0,0,0,3.41,1.48,4.57,4.57,0,0,0,2.78-.86,4.21,4.21,0,0,0,1.58-2.18l-1.49-.31A2.82,2.82,0,0,1,61.41,57.59Zm-2-7.46a2.71,2.71,0,0,1,2-.85,2.48,2.48,0,0,1,1.52.47,2.66,2.66,0,0,1,.89,1.15,4.41,4.41,0,0,1,.28,1.54H58.45A3.59,3.59,0,0,1,59.37,50.13Z"/>
    <path class="amazon-2"
          d="M61.41,57.59a3.14,3.14,0,0,1-2.06-.82q-1-.81-1-3.15h7.47a6.28,6.28,0,0,0-1.25-4.17,4.11,4.11,0,0,0-3.24-1.39A4.36,4.36,0,0,0,58,49.57a5.73,5.73,0,0,0-1.35,4,5.67,5.67,0,0,0,1.3,3.89,4.31,4.31,0,0,0,3.41,1.48,4.57,4.57,0,0,0,2.78-.86,4.21,4.21,0,0,0,1.58-2.18l-1.49-.31A2.82,2.82,0,0,1,61.41,57.59Zm-2-7.46a2.71,2.71,0,0,1,2-.85,2.48,2.48,0,0,1,1.52.47,2.66,2.66,0,0,1,.89,1.15,4.41,4.41,0,0,1,.28,1.54H58.45A3.59,3.59,0,0,1,59.37,50.13Z"/>
    <path d="M75.54,49.46a3.73,3.73,0,0,0-3-1.4,3.35,3.35,0,0,0-3,2V44.74h-1.6V58.63h.77l.57-1.7a3.52,3.52,0,0,0,3.21,2,3.67,3.67,0,0,0,3.06-1.55,6.23,6.23,0,0,0,1.17-3.85A6.05,6.05,0,0,0,75.54,49.46Zm-1.23,7.1a2.31,2.31,0,0,1-2,1.06,2.79,2.79,0,0,1-1.81-.71,3.14,3.14,0,0,1-1-2.3V52.29a3.47,3.47,0,0,1,1-2.09,2.53,2.53,0,0,1,1.82-.81,2.25,2.25,0,0,1,2,1.14,5.79,5.79,0,0,1,.72,3.12A5,5,0,0,1,74.31,56.55Z"/>
    <path class="amazon-2"
          d="M75.54,49.46a3.73,3.73,0,0,0-3-1.4,3.35,3.35,0,0,0-3,2V44.74h-1.6V58.63h.77l.57-1.7a3.52,3.52,0,0,0,3.21,2,3.67,3.67,0,0,0,3.06-1.55,6.23,6.23,0,0,0,1.17-3.85A6.05,6.05,0,0,0,75.54,49.46Zm-1.23,7.1a2.31,2.31,0,0,1-2,1.06,2.79,2.79,0,0,1-1.81-.71,3.14,3.14,0,0,1-1-2.3V52.29a3.47,3.47,0,0,1,1-2.09,2.53,2.53,0,0,1,1.82-.81,2.25,2.25,0,0,1,2,1.14,5.79,5.79,0,0,1,.72,3.12A5,5,0,0,1,74.31,56.55Z"/>
    <path d="M80.82,56l1.53-.32q.51,1.94,3.22,1.94a3.05,3.05,0,0,0,1.69-.45A1.42,1.42,0,0,0,88,55.88q0-1.21-1.76-1.53L84,53.94a4,4,0,0,1-2-1,2.48,2.48,0,0,1-.75-1.89,2.73,2.73,0,0,1,1-2.16A4.14,4.14,0,0,1,85,48.06q3.35,0,4.13,2.62L87.7,51a2.51,2.51,0,0,0-2.59-1.6,2.93,2.93,0,0,0-1.6.4,1.26,1.26,0,0,0-.63,1.12q0,1.13,1.6,1.43l2,.37q3.15.57,3.15,3.05A2.72,2.72,0,0,1,88.46,58a5.09,5.09,0,0,1-3.12.87q-3.66,0-4.52-3Z"/>
    <path class="amazon-2"
          d="M80.82,56l1.53-.32q.51,1.94,3.22,1.94a3.05,3.05,0,0,0,1.69-.45A1.42,1.42,0,0,0,88,55.88q0-1.21-1.76-1.53L84,53.94a4,4,0,0,1-2-1,2.48,2.48,0,0,1-.75-1.89,2.73,2.73,0,0,1,1-2.16A4.14,4.14,0,0,1,85,48.06q3.35,0,4.13,2.62L87.7,51a2.51,2.51,0,0,0-2.59-1.6,2.93,2.93,0,0,0-1.6.4,1.26,1.26,0,0,0-.63,1.12q0,1.13,1.6,1.43l2,.37q3.15.57,3.15,3.05A2.72,2.72,0,0,1,88.46,58a5.09,5.09,0,0,1-3.12.87q-3.66,0-4.52-3Z"/>
    <path d="M95.39,57.59a3.14,3.14,0,0,1-2.06-.82q-1-.81-1-3.15h7.47a6.25,6.25,0,0,0-1.25-4.17,4.11,4.11,0,0,0-3.24-1.39,4.36,4.36,0,0,0-3.4,1.51,5.73,5.73,0,0,0-1.35,4,5.67,5.67,0,0,0,1.3,3.89,4.31,4.31,0,0,0,3.41,1.48,4.57,4.57,0,0,0,2.78-.86,4.18,4.18,0,0,0,1.58-2.18l-1.49-.31A2.82,2.82,0,0,1,95.39,57.59Zm-2-7.46a2.71,2.71,0,0,1,2-.85,2.47,2.47,0,0,1,1.52.47,2.66,2.66,0,0,1,.89,1.15,4.41,4.41,0,0,1,.28,1.54H92.43A3.59,3.59,0,0,1,93.35,50.13Z"/>
    <path class="amazon-2"
          d="M95.39,57.59a3.14,3.14,0,0,1-2.06-.82q-1-.81-1-3.15h7.47a6.25,6.25,0,0,0-1.25-4.17,4.11,4.11,0,0,0-3.24-1.39,4.36,4.36,0,0,0-3.4,1.51,5.73,5.73,0,0,0-1.35,4,5.67,5.67,0,0,0,1.3,3.89,4.31,4.31,0,0,0,3.41,1.48,4.57,4.57,0,0,0,2.78-.86,4.18,4.18,0,0,0,1.58-2.18l-1.49-.31A2.82,2.82,0,0,1,95.39,57.59Zm-2-7.46a2.71,2.71,0,0,1,2-.85,2.47,2.47,0,0,1,1.52.47,2.66,2.66,0,0,1,.89,1.15,4.41,4.41,0,0,1,.28,1.54H92.43A3.59,3.59,0,0,1,93.35,50.13Z"/>
    <path d="M103.15,58.63h-1.6V48.34H103v2.4a5.11,5.11,0,0,1,1.49-2.18,2.73,2.73,0,0,1,1.53-.5l.63,0v1.53h-.32a2.82,2.82,0,0,0-2.2,1,4,4,0,0,0-.94,2.58v5.45Z"/>
    <path class="amazon-2"
          d="M103.15,58.63h-1.6V48.34H103v2.4a5.11,5.11,0,0,1,1.49-2.18,2.73,2.73,0,0,1,1.53-.5l.63,0v1.53h-.32a2.82,2.82,0,0,0-2.2,1,4,4,0,0,0-.94,2.58v5.45Z"/>
    <path d="M116.56,48.34,113,58.63h-1.66l-3.67-10.29h1.77l2.86,8.36,2.83-8.36Z"/>
    <path class="amazon-2" d="M116.56,48.34,113,58.63h-1.66l-3.67-10.29h1.77l2.86,8.36,2.83-8.36Z"/>
    <path d="M117.84,44.74v1.78h1.71V44.74Zm.07,3.61V58.63h1.61V48.34Z"/>
    <path class="amazon-2" d="M117.84,44.74v1.78h1.71V44.74Zm.07,3.61V58.63h1.61V48.34Z"/>
    <path d="M127.9,55l1.44.25A4.6,4.6,0,0,1,128,58a4.09,4.09,0,0,1-5.86-.61A6.46,6.46,0,0,1,121,53.51a6.28,6.28,0,0,1,1.18-3.9,3.8,3.8,0,0,1,3.2-1.56,3.65,3.65,0,0,1,2.69,1,4.5,4.5,0,0,1,1.26,2.6l-1.44.27q-.41-2.55-2.46-2.55a2.27,2.27,0,0,0-2,1.12,5.37,5.37,0,0,0-.71,2.92,5.64,5.64,0,0,0,.71,3.07,2.24,2.24,0,0,0,2,1.09q2,0,2.51-2.56Z"/>
    <path class="amazon-2"
          d="M127.9,55l1.44.25A4.6,4.6,0,0,1,128,58a4.09,4.09,0,0,1-5.86-.61A6.46,6.46,0,0,1,121,53.51a6.28,6.28,0,0,1,1.18-3.9,3.8,3.8,0,0,1,3.2-1.56,3.65,3.65,0,0,1,2.69,1,4.5,4.5,0,0,1,1.26,2.6l-1.44.27q-.41-2.55-2.46-2.55a2.27,2.27,0,0,0-2,1.12,5.37,5.37,0,0,0-.71,2.92,5.64,5.64,0,0,0,.71,3.07,2.24,2.24,0,0,0,2,1.09q2,0,2.51-2.56Z"/>
    <path d="M135.61,57.59a3.17,3.17,0,0,1-2.07-.82c-.65-.54-1-1.59-1-3.15H140a6.28,6.28,0,0,0-1.26-4.17,4.1,4.1,0,0,0-3.24-1.39,4.38,4.38,0,0,0-3.4,1.51,5.76,5.76,0,0,0-1.35,4,5.67,5.67,0,0,0,1.31,3.89,4.31,4.31,0,0,0,3.41,1.48,4.57,4.57,0,0,0,2.78-.86,4.21,4.21,0,0,0,1.58-2.18l-1.49-.31A2.82,2.82,0,0,1,135.61,57.59Zm-2-7.46a2.7,2.7,0,0,1,2-.85,2.49,2.49,0,0,1,1.52.47,2.66,2.66,0,0,1,.89,1.15,4.55,4.55,0,0,1,.28,1.54h-5.64A3.53,3.53,0,0,1,133.58,50.13Z"/>
    <path class="amazon-2"
          d="M135.61,57.59a3.17,3.17,0,0,1-2.07-.82c-.65-.54-1-1.59-1-3.15H140a6.28,6.28,0,0,0-1.26-4.17,4.1,4.1,0,0,0-3.24-1.39,4.38,4.38,0,0,0-3.4,1.51,5.76,5.76,0,0,0-1.35,4,5.67,5.67,0,0,0,1.31,3.89,4.31,4.31,0,0,0,3.41,1.48,4.57,4.57,0,0,0,2.78-.86,4.21,4.21,0,0,0,1.58-2.18l-1.49-.31A2.82,2.82,0,0,1,135.61,57.59Zm-2-7.46a2.7,2.7,0,0,1,2-.85,2.49,2.49,0,0,1,1.52.47,2.66,2.66,0,0,1,.89,1.15,4.55,4.55,0,0,1,.28,1.54h-5.64A3.53,3.53,0,0,1,133.58,50.13Z"/>
    <path d="M140.95,56l1.53-.32q.51,1.94,3.22,1.94a3.05,3.05,0,0,0,1.69-.45,1.42,1.42,0,0,0,.69-1.26q0-1.21-1.76-1.53l-2.17-.41a4,4,0,0,1-2-1,2.48,2.48,0,0,1-.75-1.89,2.72,2.72,0,0,1,1-2.16,4.14,4.14,0,0,1,2.77-.87q3.35,0,4.13,2.62l-1.47.32a2.51,2.51,0,0,0-2.59-1.6,2.92,2.92,0,0,0-1.6.4,1.26,1.26,0,0,0-.63,1.12q0,1.13,1.6,1.43l2,.37q3.15.57,3.15,3.05A2.72,2.72,0,0,1,148.59,58a5.09,5.09,0,0,1-3.12.87q-3.66,0-4.52-3Z"/>
    <path class="amazon-2"
          d="M140.95,56l1.53-.32q.51,1.94,3.22,1.94a3.05,3.05,0,0,0,1.69-.45,1.42,1.42,0,0,0,.69-1.26q0-1.21-1.76-1.53l-2.17-.41a4,4,0,0,1-2-1,2.48,2.48,0,0,1-.75-1.89,2.72,2.72,0,0,1,1-2.16,4.14,4.14,0,0,1,2.77-.87q3.35,0,4.13,2.62l-1.47.32a2.51,2.51,0,0,0-2.59-1.6,2.92,2.92,0,0,0-1.6.4,1.26,1.26,0,0,0-.63,1.12q0,1.13,1.6,1.43l2,.37q3.15.57,3.15,3.05A2.72,2.72,0,0,1,148.59,58a5.09,5.09,0,0,1-3.12.87q-3.66,0-4.52-3Z"/>
    <path d="M104.81,26.35V23.88a.61.61,0,0,1,.63-.63h11.08a.62.62,0,0,1,.64.62V26a3.46,3.46,0,0,1-.83,1.56l-5.74,8.19a12.28,12.28,0,0,1,6.32,1.36,1.13,1.13,0,0,1,.59,1V40.7c0,.36-.4.78-.82.57a12.76,12.76,0,0,0-11.71,0c-.39.21-.79-.21-.79-.57V38.21a3,3,0,0,1,.41-1.7L111.24,27h-5.79a.62.62,0,0,1-.64-.62Z"/>
    <path d="M65.17,41.79H61.8a.64.64,0,0,1-.6-.57V23.92a.64.64,0,0,1,.65-.62H65a.64.64,0,0,1,.61.58v2.26h.06a4.45,4.45,0,0,1,4.44-3.2c2.11,0,3.43,1,4.37,3.2A5,5,0,0,1,83,24.82c1.07,1.46.85,3.57.85,5.42V41.16a.64.64,0,0,1-.65.62H79.86a.63.63,0,0,1-.61-.62V32a22.07,22.07,0,0,0-.09-3.24,1.76,1.76,0,0,0-2-1.49,2.24,2.24,0,0,0-2,1.42A10.46,10.46,0,0,0,74.85,32v9.17a.64.64,0,0,1-.65.62H70.83a.63.63,0,0,1-.61-.62V32c0-1.93.32-4.77-2.08-4.77S65.82,30,65.82,32v9.17a.64.64,0,0,1-.65.62Z"/>
    <path d="M125.29,22.93c-4.84,0-7.52,4.18-7.52,9.57s2.65,9.65,7.52,9.65c4.68,0,7.65-4.19,7.65-9.47C132.94,27.23,130.26,22.93,125.29,22.93Zm0,15.65c-2.62,0-2.59-4.07-2.59-6.18s.16-5.5,2.62-5.5a2.09,2.09,0,0,1,2.18,1.67,16.19,16.19,0,0,1,.5,4.59C128,35.39,127.89,38.58,125.29,38.58Z"/>
    <path d="M140.12,41.79h-3.36a.63.63,0,0,1-.6-.62V23.86a.64.64,0,0,1,.65-.56h3.13a.64.64,0,0,1,.6.48v2.65h.06c.94-2.37,2.26-3.49,4.59-3.49a4.42,4.42,0,0,1,3.93,2c.88,1.38.88,3.71.88,5.39V41.24a.64.64,0,0,1-.65.55H146a.64.64,0,0,1-.6-.55V31.85c0-1.89.22-4.66-2.11-4.66a2.2,2.2,0,0,0-2,1.38,7.69,7.69,0,0,0-.54,3.28v9.31a.65.65,0,0,1-.66.62Z"/>
    <path d="M102.36,38.62a4.63,4.63,0,0,1-1.27-3.12V30.25c0-2.23.16-4.27-1.48-5.8a7.63,7.63,0,0,0-5.07-1.68c-3.21,0-6.79,1.19-7.54,5.16a.59.59,0,0,0,.5.7l3.27.35a.71.71,0,0,0,.59-.62,2.57,2.57,0,0,1,2.71-2,2.27,2.27,0,0,1,1.89.88,4.33,4.33,0,0,1,.41,2.44v.44c-2,.22-4.51.36-6.34,1.17a5.72,5.72,0,0,0-3.59,5.51c0,3.51,2.21,5.25,5,5.25A6.68,6.68,0,0,0,97,39.58,8.29,8.29,0,0,0,99,41.83a.7.7,0,0,0,.79-.08h0c.68-.59,1.89-1.66,2.59-2.24A.64.64,0,0,0,102.36,38.62ZM95.73,37.1a2.74,2.74,0,0,1-2.33,1.54c-1.29,0-2.05-1-2.05-2.45,0-2.87,2.58-3.39,5-3.39v.73A6.57,6.57,0,0,1,95.73,37.1Z"/>
    <path d="M58.56,38.62a4.63,4.63,0,0,1-1.27-3.12V30.25c0-2.23.16-4.27-1.48-5.8a7.63,7.63,0,0,0-5.07-1.68c-3.21,0-6.79,1.19-7.54,5.16a.59.59,0,0,0,.5.7L47,29a.71.71,0,0,0,.59-.62,2.56,2.56,0,0,1,2.71-2,2.27,2.27,0,0,1,1.89.88,4.33,4.33,0,0,1,.41,2.44v.44c-2,.22-4.51.36-6.34,1.17a5.72,5.72,0,0,0-3.6,5.51c0,3.51,2.21,5.25,5,5.25a6.68,6.68,0,0,0,5.55-2.45,8.3,8.3,0,0,0,1.94,2.25.7.7,0,0,0,.79-.08h0c.68-.59,1.89-1.66,2.58-2.24A.63.63,0,0,0,58.56,38.62ZM51.93,37.1a2.74,2.74,0,0,1-2.33,1.54c-1.29,0-2.05-1-2.05-2.45,0-2.87,2.58-3.39,5-3.39v.73A6.57,6.57,0,0,1,51.93,37.1Z"/>
</svg>