<svg xmlns="http://www.w3.org/2000/svg" viewBox="0 0 150 60">
    <defs>
        <style>.express-1{fill:#222;}</style>
    </defs>
    <path class="express-1"
          d="M1,42.15V25.46H21.82v-1H1V9.25H23.14v-1H0V43.13H23.33v-1ZM42.12,18,33.49,29.41,25,18H23.77L32.9,30.15l-10,13h1.17l9.42-12.25L43,43.13h1.22l-10.06-13L43.3,18Zm5,33.68V36.1h.1a10,10,0,0,0,3.47,5.49,10.2,10.2,0,0,0,6.59,2.07,9.54,9.54,0,0,0,7.93-3.9,13.29,13.29,0,0,0,2.05-4.2,18.6,18.6,0,0,0,0-10.25,12.5,12.5,0,0,0-2.12-4.15,9.77,9.77,0,0,0-3.37-2.73,10,10,0,0,0-4.47-1,10.83,10.83,0,0,0-3.54.56,9.47,9.47,0,0,0-2.9,1.59A10.74,10.74,0,0,0,48.62,22a11.12,11.12,0,0,0-1.42,3.05h-.1V18h-1V51.72Zm10.15-9a9.36,9.36,0,0,1-7.37-3.15q-2.78-3.15-2.78-9.05a15.52,15.52,0,0,1,.68-4.64,12,12,0,0,1,2-3.86A9.49,9.49,0,0,1,53,19.41a9.28,9.28,0,0,1,4.3-1,8.94,8.94,0,0,1,4.27,1,8.66,8.66,0,0,1,3,2.66,12.38,12.38,0,0,1,1.81,3.86A17,17,0,0,1,67,30.54a17.4,17.4,0,0,1-.56,4.37,12.49,12.49,0,0,1-1.73,3.9,9.43,9.43,0,0,1-3,2.83,8.43,8.43,0,0,1-4.42,1.1Zm16.06.39V28.93a13.86,13.86,0,0,1,.59-4,9.81,9.81,0,0,1,1.81-3.44,8.46,8.46,0,0,1,3.1-2.34,9.41,9.41,0,0,1,4.47-.71v-1a12.09,12.09,0,0,0-3.93.49,9.55,9.55,0,0,0-2.9,1.46,7.49,7.49,0,0,0-2,2.17,9.71,9.71,0,0,0-1.07,2.66h-.1V18h-1V43.13ZM84.49,30.78h21a17.39,17.39,0,0,0-.51-5,12.39,12.39,0,0,0-2-4.25,9.94,9.94,0,0,0-3.47-3,10.67,10.67,0,0,0-5.05-1.12,10.27,10.27,0,0,0-7.61,3.44A13,13,0,0,0,84.45,25a15.59,15.59,0,0,0-.93,5.56,20.41,20.41,0,0,0,.63,5.2,12.18,12.18,0,0,0,2,4.2,8.81,8.81,0,0,0,3.39,2.76,11.23,11.23,0,0,0,5,.93,11,11,0,0,0,7.22-2.42,10,10,0,0,0,3.47-6.81h-1A9.39,9.39,0,0,1,101,40.67a10.23,10.23,0,0,1-6.57,2.07,10.08,10.08,0,0,1-4.54-.93,8.22,8.22,0,0,1-3-2.54,11.07,11.07,0,0,1-1.73-3.78,20.36,20.36,0,0,1-.61-4.71Zm20-1h-20a15.1,15.1,0,0,1,1-4.73,11.74,11.74,0,0,1,2.17-3.59,9.08,9.08,0,0,1,3.12-2.27,9.44,9.44,0,0,1,3.83-.78,9.7,9.7,0,0,1,4.3.9A8.87,8.87,0,0,1,102,21.8a10.87,10.87,0,0,1,1.88,3.64,14.85,14.85,0,0,1,.63,4.37Zm21.23-4.34h1q0-4.2-2.44-6.1a10.52,10.52,0,0,0-6.64-1.9,11.64,11.64,0,0,0-4,.59A7.91,7.91,0,0,0,111,19.55a5.44,5.44,0,0,0-1.46,2.05,5.89,5.89,0,0,0-.44,2.15,6.32,6.32,0,0,0,.73,3.27,4.82,4.82,0,0,0,2.29,1.9,17.59,17.59,0,0,0,2.44.88q1.37.39,3.17.83l3.17.78a11.45,11.45,0,0,1,2.76,1,6,6,0,0,1,2,1.68,4.41,4.41,0,0,1,.76,2.68,4.78,4.78,0,0,1-.76,2.73,6.1,6.1,0,0,1-1.93,1.83,8.58,8.58,0,0,1-2.61,1,13,13,0,0,1-2.81.32q-4.44,0-6.81-2t-2.37-6.22h-1q0,4.73,2.56,6.93t7.59,2.2a14.82,14.82,0,0,0,3.25-.37,9,9,0,0,0,2.93-1.2,6.62,6.62,0,0,0,2.1-2.15,6.07,6.07,0,0,0,.81-3.22,5.42,5.42,0,0,0-.71-2.93A5.94,5.94,0,0,0,124.84,32a9.84,9.84,0,0,0-2.59-1.15q-1.44-.41-2.9-.81l-3.59-.93a21.77,21.77,0,0,1-2.86-.93,4.84,4.84,0,0,1-2-1.54,4.66,4.66,0,0,1-.76-2.86,6.72,6.72,0,0,1,.2-1.22,4.38,4.38,0,0,1,.93-1.78,6.24,6.24,0,0,1,2.25-1.61,10,10,0,0,1,4.15-.71,13,13,0,0,1,3.29.39,6.85,6.85,0,0,1,2.56,1.24,5.66,5.66,0,0,1,1.66,2.17,7.92,7.92,0,0,1,.59,3.22Zm22.6,0h1q0-4.2-2.44-6.1a10.52,10.52,0,0,0-6.64-1.9,11.64,11.64,0,0,0-4,.59,7.91,7.91,0,0,0-2.64,1.51,5.44,5.44,0,0,0-1.46,2.05,5.89,5.89,0,0,0-.44,2.15,6.32,6.32,0,0,0,.73,3.27,4.82,4.82,0,0,0,2.29,1.9,17.59,17.59,0,0,0,2.44.88q1.37.39,3.17.83l3.17.78a11.45,11.45,0,0,1,2.76,1,6,6,0,0,1,2,1.68,4.41,4.41,0,0,1,.76,2.68,4.78,4.78,0,0,1-.76,2.73,6.1,6.1,0,0,1-1.93,1.83,8.58,8.58,0,0,1-2.61,1,13,13,0,0,1-2.81.32q-4.44,0-6.81-2t-2.37-6.22h-1q0,4.73,2.56,6.93t7.59,2.2a14.82,14.82,0,0,0,3.25-.37,9,9,0,0,0,2.93-1.2,6.62,6.62,0,0,0,2.1-2.15,6.07,6.07,0,0,0,.81-3.22,5.42,5.42,0,0,0-.71-2.93A5.94,5.94,0,0,0,147.44,32a9.84,9.84,0,0,0-2.59-1.15q-1.44-.41-2.9-.81l-3.59-.93a21.77,21.77,0,0,1-2.86-.93,4.84,4.84,0,0,1-2-1.54,4.66,4.66,0,0,1-.76-2.86,6.72,6.72,0,0,1,.2-1.22,4.38,4.38,0,0,1,.93-1.78,6.24,6.24,0,0,1,2.25-1.61,10,10,0,0,1,4.15-.71,13,13,0,0,1,3.29.39,6.85,6.85,0,0,1,2.56,1.24,5.66,5.66,0,0,1,1.66,2.17,7.92,7.92,0,0,1,.59,3.22Z"/>
</svg>