<svg xmlns="http://www.w3.org/2000/svg" viewBox="0 0 150 60">
    <defs>
        <style>.node-1{fill:#333;}.node-1,.node-2{fill-rule:evenodd;}.node-2,.node-3{fill:#80bd01;}</style>
    </defs>
    <path class="node-1"
          d="M22.57,31.27A1.21,1.21,0,0,0,22,30.22L11.89,24.42a1.19,1.19,0,0,0-.55-.16h-.1a1.2,1.2,0,0,0-.56.16L.61,30.22A1.22,1.22,0,0,0,0,31.27l0,15.6a.6.6,0,0,0,.3.53.58.58,0,0,0,.6,0l6-3.43a1.23,1.23,0,0,0,.61-1.06V35.63a1.21,1.21,0,0,1,.61-1.05l2.55-1.47a1.21,1.21,0,0,1,.61-.16,1.19,1.19,0,0,1,.6.16l2.55,1.47A1.21,1.21,0,0,1,15,35.63v7.29A1.23,1.23,0,0,0,15.66,44l6,3.43a.59.59,0,0,0,.61,0,.61.61,0,0,0,.3-.53Z"/>
    <path class="node-1"
          d="M76.34,9.82a.61.61,0,0,0-.9.53V25.81a.43.43,0,0,1-.64.37l-2.52-1.45a1.22,1.22,0,0,0-1.22,0L61,30.54a1.22,1.22,0,0,0-.61,1.05V43.22A1.22,1.22,0,0,0,61,44.27l10.07,5.82a1.22,1.22,0,0,0,1.22,0l10.07-5.82A1.22,1.22,0,0,0,83,43.22v-29a1.22,1.22,0,0,0-.62-1.06ZM75.4,39.4a.3.3,0,0,1-.15.26l-3.46,2a.3.3,0,0,1-.3,0l-3.46-2a.3.3,0,0,1-.15-.26v-4a.3.3,0,0,1,.15-.26l3.46-2a.3.3,0,0,1,.3,0l3.46,2a.3.3,0,0,1,.15.26Z"/>
    <path class="node-1"
          d="M112.38,35.3a1.22,1.22,0,0,0,.61-1.05V31.43a1.22,1.22,0,0,0-.61-1.05l-10-5.81a1.22,1.22,0,0,0-1.22,0L91.08,30.38a1.22,1.22,0,0,0-.61,1.05V43.06a1.22,1.22,0,0,0,.61,1.06l10,5.7a1.22,1.22,0,0,0,1.19,0l6.05-3.36a.61.61,0,0,0,0-1.06L98.21,39.58a.61.61,0,0,1-.31-.53V35.41a.61.61,0,0,1,.3-.53l3.15-1.82a.61.61,0,0,1,.61,0l3.16,1.82a.61.61,0,0,1,.3.53v2.87a.61.61,0,0,0,.91.53Z"/>
    <path class="node-2"
          d="M40.89,24.5a1.22,1.22,0,0,1,1.22,0l10.07,5.81a1.22,1.22,0,0,1,.61,1.05V43a1.22,1.22,0,0,1-.61,1.05L42.1,49.87a1.22,1.22,0,0,1-1.22,0L30.82,44.06A1.22,1.22,0,0,1,30.21,43V31.37a1.22,1.22,0,0,1,.61-1.05Z"/>
    <path class="node-3"
          d="M131.93,50a2,2,0,0,1-1-.27l-3.17-1.88c-.47-.26-.24-.36-.09-.41a6.32,6.32,0,0,0,1.43-.65.24.24,0,0,1,.24,0l2.44,1.45a.31.31,0,0,0,.29,0l9.5-5.48a.3.3,0,0,0,.15-.26v-11a.31.31,0,0,0-.15-.26l-9.49-5.48a.3.3,0,0,0-.29,0l-9.49,5.48a.31.31,0,0,0-.15.26v11a.29.29,0,0,0,.15.25l2.6,1.5c1.41.71,2.28-.13,2.28-1V32.53a.27.27,0,0,1,.28-.27h1.2a.27.27,0,0,1,.28.27V43.35a2.63,2.63,0,0,1-2.81,3,4.06,4.06,0,0,1-2.19-.59l-2.49-1.43a2,2,0,0,1-1-1.73v-11a2,2,0,0,1,1-1.73l9.5-5.49a2.08,2.08,0,0,1,2,0l9.5,5.49a2,2,0,0,1,1,1.73v11a2,2,0,0,1-1,1.73l-9.5,5.48A2,2,0,0,1,131.93,50Z"/>
    <path class="node-3"
          d="M134.87,42.49c-4.16,0-5-1.91-5-3.51a.27.27,0,0,1,.27-.27h1.23a.28.28,0,0,1,.27.23c.19,1.25.74,1.88,3.25,1.88,2,0,2.85-.45,2.85-1.51,0-.61-.24-1.07-3.35-1.37-2.6-.26-4.21-.83-4.21-2.91,0-1.92,1.62-3.06,4.32-3.06,3,0,4.55,1.06,4.74,3.32a.27.27,0,0,1-.27.3h-1.23a.27.27,0,0,1-.27-.21c-.3-1.32-1-1.74-3-1.74-2.18,0-2.44.76-2.44,1.33s.3.89,3.25,1.28,4.31.93,4.31,3S137.88,42.49,134.87,42.49Z"/>
    <path class="node-2"
          d="M101.61,34.76a.23.23,0,0,1,.23,0l1.93,1.12a.23.23,0,0,1,.12.2V38.3a.23.23,0,0,1-.12.2l-1.93,1.12a.23.23,0,0,1-.23,0l-1.93-1.12a.23.23,0,0,1-.12-.2V36.07a.23.23,0,0,1,.12-.2Z"/>
    <path class="node-3"
          d="M150,27.35a1.83,1.83,0,1,1-1.83-1.83A1.84,1.84,0,0,1,150,27.35Zm-3.37,0a1.54,1.54,0,1,0,1.53-1.53A1.54,1.54,0,0,0,146.63,27.34Zm.85-1h.71c.24,0,.72,0,.72.54a.47.47,0,0,1-.39.5c.28,0,.3.2.34.46a2,2,0,0,0,.11.54h-.44c0-.1-.08-.62-.08-.65s-.07-.17-.21-.17h-.36v.82h-.4Zm.39.9h.32a.28.28,0,0,0,.31-.29c0-.28-.19-.28-.3-.28h-.33Z"/>
</svg>