<svg xmlns="http://www.w3.org/2000/svg" viewBox="0 0 150 60">
    <defs>
        <style>.retn-1{fill:#5067a8;}</style>
    </defs>
    <circle class="retn-1" cx="18.28" cy="30" r="3.08"/>
    <path class="retn-1"
          d="M18.28,36.92c-9.61,0-17.14-3-17.14-6.92s7.53-6.92,17.14-6.92,17.14,3,17.14,6.92S27.89,36.92,18.28,36.92Zm0-12.62c-9.52,0-15.92,2.95-15.92,5.7s6.4,5.7,15.92,5.7S34.19,32.76,34.19,30,27.8,24.31,18.28,24.31Z"/>
    <path class="retn-1"
          d="M11.35,45.26a3.23,3.23,0,0,1-1.64-.42c-3.36-1.94-2.23-10,2.58-18.3a34.54,34.54,0,0,1,7.59-9.37c2.8-2.28,5.28-3,7-2s2.31,3.48,1.74,7a34.56,34.56,0,0,1-4.32,11.25C20.16,40.58,14.89,45.26,11.35,45.26ZM25.16,16c-1.19,0-2.77.75-4.52,2.17a33.32,33.32,0,0,0-7.3,9c-4.76,8.25-5.41,15.26-3,16.64s8.13-2.69,12.9-10.94A33.33,33.33,0,0,0,27.38,22c.48-3,.06-5.1-1.15-5.8h0A2.12,2.12,0,0,0,25.16,16Z"/>
    <path class="retn-1"
          d="M25.2,45.26c-3.54,0-8.81-4.69-12.92-11.8A34.56,34.56,0,0,1,8,22.21c-.57-3.57,0-6.07,1.74-7h0c1.69-1,4.17-.26,7,2a34.55,34.55,0,0,1,7.59,9.37c4.81,8.32,5.94,16.36,2.58,18.3A3.23,3.23,0,0,1,25.2,45.26ZM11.39,16a2.12,2.12,0,0,0-1.08.26h0C9.11,16.92,8.69,19,9.17,22a33.33,33.33,0,0,0,4.17,10.84c4.76,8.25,10.51,12.31,12.9,10.94s1.74-8.39-3-16.64a33.32,33.32,0,0,0-7.3-9C14.16,16.7,12.58,16,11.39,16Z"/>
    <path class="retn-1"
          d="M53.52,35.92l-3.21-5H47.76v5H46.19V23.25h5.09a3.71,3.71,0,0,1,4,3.82A3.52,3.52,0,0,1,52,30.76l3.42,5.17Zm.11-8.85a2.36,2.36,0,0,0-2.55-2.41H47.76V29.5h3.32A2.39,2.39,0,0,0,53.63,27.07Z"/>
    <path class="retn-1"
          d="M56.6,31.33a4.59,4.59,0,0,1,4.52-4.81c2.77,0,4.41,2.17,4.41,4.92v.36H58.12A3.22,3.22,0,0,0,61.41,35a4,4,0,0,0,2.85-1.18l.68.93a5.06,5.06,0,0,1-3.65,1.42A4.55,4.55,0,0,1,56.6,31.33Zm4.5-3.63a3.06,3.06,0,0,0-3,3h6A3,3,0,0,0,61.1,27.7Z"/>
    <path class="retn-1"
          d="M73.57,35.92v-1a3.94,3.94,0,0,1-3,1.27,3.05,3.05,0,0,1-3.19-3,3,3,0,0,1,3.19-3,3.89,3.89,0,0,1,3,1.23V29.67c0-1.22-1-1.92-2.32-1.92A3.58,3.58,0,0,0,68.44,29l-.67-1a4.8,4.8,0,0,1,3.67-1.52c2,0,3.55.87,3.55,3.1v6.31Zm0-1.94V32.24a3.1,3.1,0,0,0-2.51-1.12,2,2,0,1,0,0,4A3.06,3.06,0,0,0,73.57,34Z"/>
    <path class="retn-1"
          d="M77.33,31.33a4.53,4.53,0,0,1,4.58-4.81,3.93,3.93,0,0,1,3.36,1.6l-.95.85A2.7,2.7,0,0,0,82,27.79c-1.94,0-3.17,1.5-3.17,3.53S80,34.88,82,34.88a2.77,2.77,0,0,0,2.34-1.2l.95.87a3.93,3.93,0,0,1-3.36,1.6A4.55,4.55,0,0,1,77.33,31.33Z"/>
    <path class="retn-1"
          d="M87.57,34V28H86V26.75h1.52V24.24H89v2.51h1.86V28H89v5.7c0,.68.3,1.18.91,1.18a1.35,1.35,0,0,0,1-.4l.42,1.08a2.31,2.31,0,0,1-1.69.59A1.88,1.88,0,0,1,87.57,34Z"/>
    <path class="retn-1" d="M106.81,35.92,99.43,25.82V35.92H97.85V23.25h1.61l7.29,9.9v-9.9h1.58V35.92Z"/>
    <path class="retn-1"
          d="M117,35.92v-1a3.94,3.94,0,0,1-3,1.27,3.05,3.05,0,0,1-3.19-3,3,3,0,0,1,3.19-3,3.89,3.89,0,0,1,3,1.23V29.67c0-1.22-1-1.92-2.32-1.92A3.58,3.58,0,0,0,111.85,29l-.67-1a4.8,4.8,0,0,1,3.67-1.52c2,0,3.55.87,3.55,3.1v6.31ZM117,34V32.24a3.1,3.1,0,0,0-2.51-1.12,2,2,0,1,0,0,4A3.06,3.06,0,0,0,117,34Z"/>
    <path class="retn-1"
          d="M121.56,34V28H120V26.75h1.52V24.24H123v2.51h1.86V28H123v5.7c0,.68.3,1.18.91,1.18a1.35,1.35,0,0,0,1-.4l.42,1.08a2.31,2.31,0,0,1-1.69.59A1.88,1.88,0,0,1,121.56,34Z"/>
    <path class="retn-1"
          d="M126.61,24.49a1,1,0,0,1,1-1,1,1,0,0,1,1,1,.94.94,0,0,1-1,1A1,1,0,0,1,126.61,24.49Zm.25,11.44V26.75h1.42v9.18Z"/>
    <path class="retn-1" d="M133.59,35.92l-3.82-9.18h1.56l3,7.52,3.06-7.52H139l-3.82,9.18Z"/>
    <path class="retn-1"
          d="M139.91,31.33a4.59,4.59,0,0,1,4.52-4.81c2.77,0,4.41,2.17,4.41,4.92v.36h-7.41A3.22,3.22,0,0,0,144.72,35a4,4,0,0,0,2.85-1.18l.68.93a5.06,5.06,0,0,1-3.65,1.42A4.55,4.55,0,0,1,139.91,31.33Zm4.5-3.63a3.06,3.06,0,0,0-3,3h6A3,3,0,0,0,144.42,27.7Z"/>
</svg>