<svg xmlns="http://www.w3.org/2000/svg" viewBox="0 0 150 60">
    <defs>
        <style>.rct-1{fill:#00d8ff;}</style>
    </defs>
    <circle class="rct-1" cx="28.33" cy="30.01" r="5.03"/>
    <path class="rct-1"
          d="M28.33,41.29C12.66,41.29.39,36.33.39,30S12.66,18.73,28.33,18.73s27.94,5,27.94,11.28S44,41.29,28.33,41.29Zm0-20.57c-15.52,0-26,4.8-26,9.29s10.43,9.29,26,9.29,26-4.8,26-9.29S43.85,20.72,28.33,20.72Z"/>
    <path class="rct-1"
          d="M17,54.88a5.27,5.27,0,0,1-2.68-.68C8.88,51,10.72,37.94,18.56,24.37A56.31,56.31,0,0,1,30.93,9.1C35.5,5.38,39.54,4.22,42.3,5.81s3.77,5.67,2.84,11.49a56.34,56.34,0,0,1-7,18.35C31.4,47.24,22.81,54.88,17,54.88ZM39.55,7.1c-1.94,0-4.51,1.22-7.37,3.54a54.32,54.32,0,0,0-11.9,14.72c-7.76,13.44-8.81,24.88-4.93,27.12s13.26-4.38,21-17.83A54.34,54.34,0,0,0,43.17,17c.78-4.87.1-8.32-1.87-9.45h0A3.45,3.45,0,0,0,39.55,7.1Z"/>
    <path class="rct-1"
          d="M39.62,54.88c-5.78,0-14.37-7.64-21.06-19.24a56.34,56.34,0,0,1-7-18.35c-.93-5.82.08-9.9,2.84-11.49h0c2.76-1.6,6.8-.43,11.37,3.29A56.33,56.33,0,0,1,38.1,24.37C45.93,37.94,47.77,51,42.3,54.2A5.27,5.27,0,0,1,39.62,54.88ZM17.1,7.1a3.46,3.46,0,0,0-1.75.43h0c-2,1.14-2.65,4.58-1.87,9.45a54.34,54.34,0,0,0,6.8,17.67C28,48.1,37.42,54.72,41.3,52.48s2.83-13.68-4.93-27.12a54.32,54.32,0,0,0-11.9-14.72C21.62,8.32,19,7.1,17.1,7.1Z"/>
    <path class="rct-1"
          d="M76.71,41.54l-5.92-9.28H66.1v9.28H63.2V18.19h9.38c4.27,0,7.35,2.73,7.35,7A6.48,6.48,0,0,1,73.84,32l6.3,9.52Zm.21-16.31a4.35,4.35,0,0,0-4.69-4.45H66.1v8.93h6.13A4.4,4.4,0,0,0,76.92,25.23Z"/>
    <path class="rct-1"
          d="M82.38,33.07c0-4.9,3.5-8.86,8.33-8.86,5.11,0,8.12,4,8.12,9.07v.67H85.18a5.93,5.93,0,0,0,6.06,5.85,7.36,7.36,0,0,0,5.25-2.17l1.26,1.72A9.32,9.32,0,0,1,91,42C86,42,82.38,38.36,82.38,33.07Zm8.3-6.69c-3.61,0-5.39,3-5.53,5.6h11.1A5.47,5.47,0,0,0,90.67,26.38Z"/>
    <path class="rct-1"
          d="M113.63,41.54V39.62A7.26,7.26,0,0,1,108,42a5.62,5.62,0,0,1-5.88-5.6c0-3.82,3-5.57,5.88-5.57a7.16,7.16,0,0,1,5.6,2.28V30c0-2.24-1.82-3.54-4.27-3.54a6.6,6.6,0,0,0-5.18,2.35L103,27a8.85,8.85,0,0,1,6.76-2.8c3.61,0,6.55,1.61,6.55,5.71V41.54Zm0-3.57V34.75A5.71,5.71,0,0,0,109,32.69c-2.48,0-4.2,1.54-4.2,3.68s1.72,3.71,4.2,3.71A5.64,5.64,0,0,0,113.63,38Z"/>
    <path class="rct-1"
          d="M120.56,33.07c0-5,3.4-8.86,8.44-8.86a7.24,7.24,0,0,1,6.2,2.94l-1.75,1.58a5,5,0,0,0-4.31-2.17c-3.57,0-5.85,2.77-5.85,6.51s2.28,6.55,5.85,6.55a5.1,5.1,0,0,0,4.31-2.21L135.19,39A7.24,7.24,0,0,1,129,42C124,42,120.56,38.08,120.56,33.07Z"/>
    <path class="rct-1"
          d="M139.43,38V26.94h-2.8V24.63h2.8V20h2.66v4.62h3.43v2.31h-3.43v10.5c0,1.26.56,2.17,1.68,2.17a2.49,2.49,0,0,0,1.79-.73l.77,2A4.26,4.26,0,0,1,143.21,42C140.69,42,139.43,40.53,139.43,38Z"/>
</svg>