<svg id="Layer_1" data-name="Layer 1" xmlns="http://www.w3.org/2000/svg" viewBox="0 0 150 60">
    <defs>
        <style>.react-1,.react-2{fill:#00d8ff;}.react-2{font-size:35px;font-family:ProximaNova-Regular, Proxima
            Nova;}.react-3{letter-spacing:-0.03em;}
        </style>
    </defs>
    <title>React</title>
    <circle class="react-1" cx="28.33" cy="30.01" r="5.03"/>
    <path class="react-1"
          d="M28.33,41.29C12.66,41.29.39,36.33.39,30S12.66,18.73,28.33,18.73s27.94,5,27.94,11.28S44,41.29,28.33,41.29Zm0-20.57c-15.52,0-26,4.8-26,9.29s10.43,9.29,26,9.29,26-4.8,26-9.29S43.85,20.72,28.33,20.72Z"/>
    <path class="react-1"
          d="M17,54.88a5.27,5.27,0,0,1-2.68-.68C8.88,51,10.72,37.94,18.56,24.37A56.31,56.31,0,0,1,30.93,9.1C35.5,5.38,39.54,4.22,42.3,5.81s3.77,5.67,2.84,11.49a56.34,56.34,0,0,1-7,18.35C31.4,47.24,22.81,54.88,17,54.88ZM39.55,7.1c-1.94,0-4.51,1.22-7.37,3.54a54.32,54.32,0,0,0-11.9,14.72c-7.76,13.44-8.81,24.88-4.93,27.12s13.26-4.38,21-17.83A54.34,54.34,0,0,0,43.17,17c.78-4.87.1-8.32-1.87-9.45h0A3.45,3.45,0,0,0,39.55,7.1Z"/>
    <path class="react-1"
          d="M39.62,54.88c-5.78,0-14.37-7.64-21.06-19.24a56.34,56.34,0,0,1-7-18.35c-.93-5.82.08-9.9,2.84-11.49h0c2.76-1.6,6.8-.43,11.37,3.29A56.33,56.33,0,0,1,38.1,24.37C45.93,37.94,47.77,51,42.3,54.2A5.27,5.27,0,0,1,39.62,54.88ZM17.1,7.1a3.46,3.46,0,0,0-1.75.43h0c-2,1.14-2.65,4.58-1.87,9.45a54.34,54.34,0,0,0,6.8,17.67C28,48.1,37.42,54.72,41.3,52.48s2.83-13.68-4.93-27.12a54.32,54.32,0,0,0-11.9-14.72C21.62,8.32,19,7.1,17.1,7.1Z"/>
    <text class="react-2" transform="translate(63.46 41.54)">
        <tspan class="react-3">R</tspan>
        <tspan x="20.26" y="0">eact</tspan>
    </text>
</svg>