<svg xmlns="http://www.w3.org/2000/svg" viewBox="0 0 150 60">
    <defs>
        <style>.redux-1{fill:#303030;}.redux-2{fill:#764abc;}</style>
    </defs>
    <path class="redux-1"
          d="M59.19,18.77q.79-.13,1.73-.25t1.9-.18q1-.07,1.86-.1t1.67,0a20,20,0,0,1,3.45.3,9.88,9.88,0,0,1,3,1,5.89,5.89,0,0,1,2.16,2,5.74,5.74,0,0,1,.82,3.18,7.46,7.46,0,0,1-1.4,4.67,7,7,0,0,1-3.88,2.49l1.75,1,5.77,8.75H72.39L66.65,32.7l-2.57-.4v9.34H59.19Zm7.49,3.73-1.47,0a5.84,5.84,0,0,0-1.14.12V29h2.08a5.92,5.92,0,0,0,3.28-.79,3,3,0,0,0,1.2-2.74,2.58,2.58,0,0,0-1-2.21A4.87,4.87,0,0,0,66.68,22.5Z"/>
    <path class="redux-1"
          d="M91.56,40.06a10,10,0,0,1-3.05,1.47,13.66,13.66,0,0,1-4.14.61q-4.46,0-6.53-2.44A10,10,0,0,1,75.76,33q0-4.52,2.34-6.85a9,9,0,0,1,6.6-2.33,11,11,0,0,1,2.74.35,6.62,6.62,0,0,1,2.41,1.16,5.77,5.77,0,0,1,1.7,2.18,7.93,7.93,0,0,1,.64,3.38q0,.69-.08,1.52a14.7,14.7,0,0,1-.28,1.72H80.28a4.87,4.87,0,0,0,1.3,3.32,5.31,5.31,0,0,0,3.71,1.07,8.2,8.2,0,0,0,2.79-.45,8.28,8.28,0,0,0,1.9-.91ZM84.63,27.45a3.87,3.87,0,0,0-3,1.11,4.79,4.79,0,0,0-1.16,2.82H87.9a4.16,4.16,0,0,0-.66-2.87A3,3,0,0,0,84.63,27.45Z"/>
    <path class="redux-1"
          d="M109.65,35.57q0,1.39,0,2.87a25.45,25.45,0,0,0,.3,3.23h-3.2l-.66-2.41h-.43a5.51,5.51,0,0,1-2.16,2.1A7.72,7.72,0,0,1,94.8,40q-1.91-2.16-1.91-6.68a13.18,13.18,0,0,1,.54-3.93,8.07,8.07,0,0,1,1.62-3,7.13,7.13,0,0,1,2.66-1.88,9.46,9.46,0,0,1,3.66-.66,9.6,9.6,0,0,1,2,.18q.84.18,1.67.45V18.54h4.62Zm-8.28,2.71a3.68,3.68,0,0,0,2.41-.71,4.06,4.06,0,0,0,1.25-2V28.61a4.07,4.07,0,0,0-1.27-.68,6,6,0,0,0-1.77-.21A4,4,0,0,0,98.71,29q-1.07,1.29-1.07,4.42a6.14,6.14,0,0,0,.91,3.51A3.17,3.17,0,0,0,101.36,38.28Z"/>
    <path class="redux-1"
          d="M116.74,24.32v9.6a6.32,6.32,0,0,0,.59,3.14,2.44,2.44,0,0,0,2.28,1,3.89,3.89,0,0,0,2.44-.76,4.46,4.46,0,0,0,1.45-1.91V24.32h4.62v12a26.1,26.1,0,0,0,.15,2.77,20.53,20.53,0,0,0,.41,2.51h-3.4l-.89-2.71H124a6.74,6.74,0,0,1-2.44,2.29,7.17,7.17,0,0,1-3.63.91,7.92,7.92,0,0,1-2.51-.36,4.15,4.15,0,0,1-1.83-1.2,5.51,5.51,0,0,1-1.12-2.23,13.21,13.21,0,0,1-.38-3.43V24.32Z"/>
    <path class="redux-1"
          d="M134.79,32.76l-5.68-8.45h5.61l2.34,3.37,0,0,1.35,3.07,1.32-3.07,0,0,2.51-3.37h5.08l-5.71,8.32,6.07,9h-5.48l-2.8-3.89,0,0-1.39-3-1.45,3,0,0-2.84,3.89h-5.08Z"/>
    <path class="redux-2"
          d="M31.3,36.82A3,3,0,0,0,31,30.88h-.11A3,3,0,0,0,28,34a3,3,0,0,0,.85,2,19,19,0,0,1-8.7,8.33,14.34,14.34,0,0,1-8.65,1.64A7.37,7.37,0,0,1,6.1,42.76a7.79,7.79,0,0,1-.42-8.22A12.49,12.49,0,0,1,9.28,30.3c-.21-.69-.53-1.86-.69-2.71C.9,33.16,1.7,40.69,4,44.25c1.75,2.65,5.3,4.3,9.23,4.3a13,13,0,0,0,3.18-.37A20.36,20.36,0,0,0,31.3,36.82Zm9.34-6.58a21.54,21.54,0,0,0-16.76-7.32H23a2.91,2.91,0,0,0-2.6-1.59h-.11a3,3,0,0,0,.11,5.94h.11a3,3,0,0,0,2.6-1.8h1a20.22,20.22,0,0,1,11.3,3.45A14.21,14.21,0,0,1,41,35.71,7.35,7.35,0,0,1,40.9,42a7.79,7.79,0,0,1-7.27,4.35,13.57,13.57,0,0,1-5.2-1.11c-.58.53-1.64,1.38-2.39,1.91a16.37,16.37,0,0,0,6.84,1.64c5.09,0,8.86-2.81,10.29-5.62C44.72,40.06,44.61,34.75,40.63,30.24ZM13.69,37.72a3,3,0,0,0,3,2.86h.11a3,3,0,0,0-.11-5.94h-.11a.9.9,0,0,0-.37.05,19.44,19.44,0,0,1-2.76-11.78,14.23,14.23,0,0,1,3.13-8.22,9.2,9.2,0,0,1,6.52-3c5.62-.11,8,6.9,8.17,9.71.69.16,1.86.53,2.65.8-.64-8.59-5.94-13-11-13-4.77,0-9.18,3.45-10.93,8.54C9.5,24.52,11.09,31,14.06,36.19A2.38,2.38,0,0,0,13.69,37.72Z"/>
</svg>