<svg xmlns="http://www.w3.org/2000/svg" viewBox="0 0 130 130">
    <defs>
        <style>
            .des-2,.des-3{fill:none;stroke-linecap:round;stroke-width:2.03px;}.des-2{stroke-miterlimit:10;}.des-3{stroke-linejoin:round;}
        </style>
    </defs>
    <g>
        <path class="des-1"
              d="M107.54,72.84v1.59H93.14l.5-.28a12.58,12.58,0,0,0,5.55-6.27l0-.1h1.68V63.32H96.44v4.46h1.39l-.1.22A11.16,11.16,0,0,1,90,74.17l-.18,0V72.84H85.33v1.37l-.18,0A11.18,11.18,0,0,1,77.39,68l-.1-.22h1.4V63.32H74.23v4.46H75.9l0,.1a12.52,12.52,0,0,0,5.54,6.27l.51.28H67.58V72.84H63.12V77.3h4.46V75.72H82l-.51.28a12.48,12.48,0,0,0-5.54,6.27l0,.09H74.23v4.46h4.46V82.36h-1.4l.1-.21A11.13,11.13,0,0,1,85.15,76l.18,0V77.3h4.46V75.94L90,76a11.11,11.11,0,0,1,7.76,6.17l.1.21H96.44v4.46h4.46V82.36H99.22l0-.09A12.54,12.54,0,0,0,93.64,76l-.5-.28h14.4V77.3H112V72.84ZM97.8,66.42V64.68h1.74v1.74Zm-22.21,0V64.68h1.73v1.74Zm-9.37,9.52H64.48V74.2h1.74Zm11.1,7.78v1.74H75.59V83.72Zm11.11-7.78H86.69V74.2h1.74Zm11.11,7.78v1.74H97.8V83.72Zm11.1-7.78H108.9V74.2h1.74Z"/>
        <path class="des-1"
              d="M93.28,93.27l1.06-3.17,0-.11.24-.7-.69-1.19,0-.07-5.16-8.84H86.4l-5.32,9.12-.57,1,.24.7,0,.11,1,3.17.07.2H80.57v4.46h1.59v4.76H93V97.93h1.59V93.47H93.21ZM86.84,81.13v.28l0,4.16a3.09,3.09,0,1,0,3.87,3,3.23,3.23,0,0,0-2.38-3.06V81.13l4.83,8.34-1.36,3.92-8.45,0L82,89.4Zm.72,5.69a1.73,1.73,0,1,1-1.74,1.74A1.74,1.74,0,0,1,87.56,86.82Zm5.63,9.75H91.6v4.76H83.52V96.57H81.93V94.83H93.19Z"/>
        <path class="des-2" d="M14.91,88.27V31.17a4,4,0,0,1,4-4h85.3a4,4,0,0,1,4,4V64.38"/>
        <line class="des-2" x1="14.91" y1="33.28" x2="101.51" y2="33.28"/>
        <rect class="des-1" x="19.44" y="29.14" width="2.66" height="2.66"/>
        <rect class="des-1" x="23.44" y="29.14" width="2.66" height="2.66"/>
        <rect class="des-1" x="27.44" y="29.14" width="2.66" height="2.66"/>
        <line class="des-2" x1="2.5" y1="93.18" x2="30.1" y2="93.18"/>
        <line class="des-2" x1="108.23" y1="93.18" x2="127.5" y2="93.18"/>
        <line class="des-2" x1="21.99" y1="101.69" x2="63.61" y2="101.69"/>
        <line class="des-2" x1="35.79" y1="93.18" x2="65.34" y2="93.18"/>
        <line class="des-2" x1="67.68" y1="53.39" x2="96.79" y2="53.39"/>
        <line class="des-2" x1="67.68" y1="46.69" x2="78.8" y2="46.69"/>
        <line class="des-2" x1="82.24" y1="46.69" x2="96.79" y2="46.69"/>
        <path class="des-3"
              d="M57.27,62q0,8.58-4.89,13.15T38.28,79.76H28.43V45H39.35q8.51,0,13.22,4.49T57.27,62Zm-7.65.19q0-11.2-9.89-11.2H35.8V73.67H39Q49.62,73.67,49.62,62.24Z"/>
    </g>
</svg>