<svg xmlns="http://www.w3.org/2000/svg" viewBox="0 0 309.01 377.88">
    <defs>
        <style>.fpice-1{fill:none;}</style>
    </defs>
    <path d="M296.42,156.37A53,53,0,0,0,267.68,139V102.88C267.68,46.15,216.92,0,154.53,0S41.33,46.15,41.33,102.88V139A52.83,52.83,0,0,0,0,190.54V325.11a52.83,52.83,0,0,0,52.77,52.77H256.24A52.83,52.83,0,0,0,309,325.11V190.5A52.63,52.63,0,0,0,296.42,156.37ZM61.08,137.74V102.88c0-45.81,41.92-83.08,93.45-83.08s93.4,37.27,93.4,83.08v34.86ZM289.26,190.5V325.11a33.06,33.06,0,0,1-33,33H52.77a33,33,0,0,1-33-33V190.5a33,33,0,0,1,33-33H256.24A33,33,0,0,1,289.26,190.5Z"/>
    <path d="M187.39,282.21a33.17,33.17,0,0,1-22.16,31.34v15.91H143.09l0-15.84a40.17,40.17,0,0,1-8.8-4.24,107.23,107.23,0,0,1-15.49-12.12l6.87-8.49.48-.61.06-.07,6.53-8.07,7.09,5.65c1,.76,1.77,1.3,2.37,1.83,5.61,5,11.33,7,16.29,4.92a11.08,11.08,0,0,0-4.32-21.29,32.54,32.54,0,0,1-23.67-10.28,34.16,34.16,0,0,1-9.56-23.7,33.33,33.33,0,0,1,21.86-31.23l.29-.11,0-16.87h22.14V205.7a42.1,42.1,0,0,1,13.61,7.8c1.09.91,2.16,1.89,3.2,2.92l10.84,10.84L177.2,242.93l-6.53-6.53-3.72-3.72c-.2-.21-.39-.41-.59-.59s-.3-.3-.45-.44c-5.16-4.9-10.7-6.68-15.55-4.91a11.11,11.11,0,0,0-7.29,10.41c0,6.3,5.18,11.82,11.08,11.82A33.28,33.28,0,0,1,187.39,282.21Z"/>
    <line class="fpice-1" x1="170.67" y1="236.4" x2="166.95" y2="232.68"/>
</svg>