<svg xmlns="http://www.w3.org/2000/svg" viewBox="0 0 512 350.5">
    <rect x="106.6" y="298.97" width="15.19" height="16.91"/>
    <path d="M434,180.47a75,75,0,0,0-8.71-135.61c-5.61-2.67-14.78-4.13-14.78-4.13a75.78,75.78,0,0,0-12.68-1.09A75,75,0,0,0,338.3,69,83.77,83.77,0,0,0,263.6.37S259.5,0,256.25,0c-4.13,0-7.85.37-7.85.37A83.77,83.77,0,0,0,173.7,69a75,75,0,0,0-59.5-29.38,73.61,73.61,0,0,0-8.84.54c-6.33.65-8.55,1.51-14.81,3.3A75,75,0,0,0,78,180.47,114.39,114.39,0,0,0,0,288.79V350.5H15.19V288.79a99.15,99.15,0,0,1,57.77-90l33.64,38.56v47.3h15.19v-47.3l33.64-38.56,1.36.64a127.07,127.07,0,0,0-28.46,80.25V350.5h15.2V279.68A112.63,112.63,0,0,1,209.8,177.14l38.6,44.25V275h15.2V221.39l38.6-44.25a112.63,112.63,0,0,1,66.27,102.54V350.5h15.2V279.68a127.07,127.07,0,0,0-28.46-80.25l1.36-.64,33.64,38.56v47.3H405.4v-47.3L439,198.79a99.14,99.14,0,0,1,57.77,90V350.5H512V288.79A114.39,114.39,0,0,0,434,180.47Zm-36.18-5.88A60,60,0,0,1,339,126.08c17.27-5.95,29.57-14.11,38-21.63,11,7.81,36.69,22,79.06,23.83A60,60,0,0,1,397.8,174.59Zm0-119.76a60,60,0,0,1,59.85,58.31c-36.86-1.41-59.74-13.13-70-19.89a52.52,52.52,0,0,0,5.61-8.53l-13.67-6.63c-.11.22-10,20-41.5,32.17A59.93,59.93,0,0,1,397.8,54.83ZM256,15.2a68.48,68.48,0,0,1,68.39,67.64c-43.4-1.45-69.9-15.52-81.2-23.18A60,60,0,0,0,250,49.41l-13.65-6.67c-.52,1-12.25,23.71-48.7,37.29A68.49,68.49,0,0,1,256,15.2ZM322.87,98A68.39,68.39,0,0,1,188.7,95.78C208.83,89,223,79.47,232.57,70.84,244.59,79.52,273.83,96.18,322.87,98ZM114.2,54.83A59.94,59.94,0,0,1,174,113.14c-36.86-1.41-59.74-13.13-70-19.89a52.52,52.52,0,0,0,5.61-8.53L96,78c-.45.9-10.49,20.26-41.52,32.22A60,60,0,0,1,114.2,54.83ZM55.41,126.08c17.27-5.95,29.57-14.11,38-21.63,11,7.81,36.69,22,79.06,23.83a59.87,59.87,0,0,1-117.1-2.2ZM114.2,223,88.28,193.23a99.09,99.09,0,0,1,51.84,0Zm53.26-35.15a112.59,112.59,0,0,0-17.09-7.33,75.36,75.36,0,0,0,37-49.16,84.12,84.12,0,0,0,30.31,26.58A127.76,127.76,0,0,0,167.46,187.8ZM256,207l-30.92-35.45a112.56,112.56,0,0,1,61.84,0Zm88.54-19.19a127.76,127.76,0,0,0-50.25-29.91,84.12,84.12,0,0,0,30.31-26.58,75.36,75.36,0,0,0,37,49.16A112.59,112.59,0,0,0,344.54,187.8ZM397.8,223l-25.92-29.72a99.09,99.09,0,0,1,51.84,0ZM449.56,350.5h15.19V292.17H449.56Zm-134.3,0h15.19v-67H315.26Zm-133.71,0h15.2v-67h-15.2Zm-134.3,0H62.44V292.17H47.25Z"/>
    <rect x="390.21" y="298.97" width="15.19" height="16.91"/>
    <rect x="248.4" y="291.16" width="15.19" height="19.05"/>
</svg>