<svg xmlns="http://www.w3.org/2000/svg" viewBox="0 0 350.19 370.1">
    <path d="M184.48,149.68V94.4a9.38,9.38,0,0,0-18.76,0v55.29A26.45,26.45,0,0,0,150.38,165H112.23a9.39,9.39,0,0,0,0,18.77h38.15a26.47,26.47,0,1,0,34.1-34.1Zm-9.38,32.49a7.76,7.76,0,1,1,7.78-7.78A7.79,7.79,0,0,1,175.1,182.17Z"/>
    <path d="M175.09,63.78a9.4,9.4,0,0,0,9.39-9.38V48.7a9.38,9.38,0,0,0-18.77,0V54.4A9.39,9.39,0,0,0,175.09,63.78Z"/>
    <path d="M175.09,310.49a9.4,9.4,0,0,0,9.39-9.38v-5.69a9.38,9.38,0,0,0-18.77,0v5.69A9.39,9.39,0,0,0,175.09,310.49Z"/>
    <path d="M49.37,165a9.38,9.38,0,0,0,0,18.77h5.72a9.38,9.38,0,1,0,0-18.77Z"/>
    <path d="M264,76.12a9.31,9.31,0,0,0-6.64,2.76l-4,4a9.38,9.38,0,0,0,6.64,16,9.29,9.29,0,0,0,6.64-2.76l4-4a9.38,9.38,0,0,0-6.64-16Z"/>
    <path d="M90.25,249.87a9.28,9.28,0,0,0-6.65,2.79l-4,4a9.38,9.38,0,1,0,13.27,13.27l4-4a9.38,9.38,0,0,0,0-13.25A9.26,9.26,0,0,0,90.25,249.87Z"/>
    <path d="M96.88,82.91l-4.05-4A9.38,9.38,0,1,0,79.57,92.14l4,4a9.38,9.38,0,0,0,13.27,0A9.39,9.39,0,0,0,96.88,82.91Z"/>
    <path d="M350.18,174.39A175.09,175.09,0,0,0,175.09,0C78.55,0,0,78.55,0,175.09S78.55,350.19,175.09,350.19h3.66V331.42h-3.66c-86.2,0-156.33-70.13-156.33-156.33S88.9,18.78,175.09,18.78A156.48,156.48,0,0,1,331.41,174.42l0,3.65h18.77Z"/>
    <path d="M305,294.18a43.47,43.47,0,0,1-29,41.07l-3.33,1.18,0,22.17h-22.4V336.46l-3.41-1.14A60,60,0,0,1,225,321.79c-.11-.11-.42-.29-.52-.4L217,314.84l6.9-8.19.06-.08.46-.54,6.84-8.12,7,5.93c1.84,1.42,2.13,1.61,2.18,1.66,6.66,6.42,13.92,9.85,21,9.85a20.9,20.9,0,0,0,8.18-1.65,21.19,21.19,0,0,0-8.24-40.7,42.61,42.61,0,0,1-31-13.47,45,45,0,0,1-12.58-31.17,43.67,43.67,0,0,1,28.61-40.91l.19-.07.05,0,3.51-1.05V165h22.4l0,21,3.41,1.15c9.64,3.24,18.77,10.12,26.71,18.88l8,8-15.68,15.68-11.18-11.18c-.57-.6-1.15-1.18-1.73-1.74l-.31-.3c-6.5-6.09-13.61-9.38-20.44-9.38a21.19,21.19,0,0,0-21.19,21.19,22.93,22.93,0,0,0,6.22,15.5,20.75,20.75,0,0,0,15,6.77A43.6,43.6,0,0,1,305,294.18Z"/>
    <rect x="165.71" y="85.03" width="18.77" height="20.99"/>
    <rect x="108.05" y="159.82" width="18.77" height="29.17" transform="translate(-56.97 291.84) rotate(-90)"/>
    <rect x="42.86" y="162.17" width="18.77" height="24.45" transform="translate(-122.15 226.65) rotate(-90)"/>
    <rect x="165.71" y="286.03" width="18.77" height="24.45" transform="translate(350.19 596.52) rotate(180)"/>
    <rect x="165.71" y="39.32" width="18.77" height="24.45" transform="translate(350.19 103.1) rotate(180)"/>
    <rect x="78.73" y="75.26" width="18.77" height="24.45" transform="translate(-36.05 87.72) rotate(-44.9)"/>
    <rect x="78.67" y="249.43" width="18.77" height="24.45" transform="translate(210.55 14.24) rotate(44.94)"/>
    <rect x="252.76" y="75.47" width="18.77" height="24.45" transform="translate(139.23 -159.9) rotate(45.1)"/>
</svg>