<svg xmlns="http://www.w3.org/2000/svg" viewBox="0 0 150 60">
    <title>DOU</title>
    <path
          d="M53.24,30a19.1,19.1,0,0,1-1.36,7.29A17.05,17.05,0,0,1,48,43a17.41,17.41,0,0,1-6,3.8,21.1,21.1,0,0,1-7.74,1.36H20.19V11.79H34.34a20.93,20.93,0,0,1,7.74,1.38A17.66,17.66,0,0,1,48,17a16.92,16.92,0,0,1,3.84,5.76A19,19,0,0,1,53.24,30Zm-8.65,0a15.88,15.88,0,0,0-.7-4.87,10.42,10.42,0,0,0-2-3.69,8.74,8.74,0,0,0-3.21-2.32,10.91,10.91,0,0,0-4.33-.81H28.69V41.71h5.65a10.9,10.9,0,0,0,4.33-.81,8.73,8.73,0,0,0,3.21-2.33,10.41,10.41,0,0,0,2-3.69A16,16,0,0,0,44.59,30Z"/>
    <path
          d="M94,30a19.58,19.58,0,0,1-1.36,7.35,17.37,17.37,0,0,1-9.8,9.85,21.75,21.75,0,0,1-15.49,0,17.39,17.39,0,0,1-9.84-9.85A19.57,19.57,0,0,1,56.14,30a19.57,19.57,0,0,1,1.36-7.35,17.48,17.48,0,0,1,3.85-5.9,17.79,17.79,0,0,1,6-3.92,20.37,20.37,0,0,1,7.75-1.43,20.13,20.13,0,0,1,7.74,1.44,17.87,17.87,0,0,1,6,3.94,17.59,17.59,0,0,1,3.84,5.9A19.51,19.51,0,0,1,94,30Zm-8.65,0a15.75,15.75,0,0,0-.7-4.86,10.3,10.3,0,0,0-2-3.66,8.68,8.68,0,0,0-3.21-2.3,11.06,11.06,0,0,0-4.33-.8,11.22,11.22,0,0,0-4.36.8,8.65,8.65,0,0,0-3.23,2.3,10.3,10.3,0,0,0-2,3.66,15.75,15.75,0,0,0-.7,4.86,15.83,15.83,0,0,0,.7,4.89,10.29,10.29,0,0,0,2,3.66,8.53,8.53,0,0,0,3.23,2.29,11.37,11.37,0,0,0,4.36.79,11.21,11.21,0,0,0,4.33-.79,8.56,8.56,0,0,0,3.21-2.29,10.3,10.3,0,0,0,2-3.66A15.83,15.83,0,0,0,85.34,30Z"/>
    <path
          d="M114.16,41.54a7.77,7.77,0,0,0,3-.56,6.15,6.15,0,0,0,2.26-1.61,7.12,7.12,0,0,0,1.41-2.56,11.18,11.18,0,0,0,.49-3.44V11.79h8.45V33.36a16.84,16.84,0,0,1-1.09,6.15,13.79,13.79,0,0,1-3.11,4.83,14,14,0,0,1-4.92,3.15,19.55,19.55,0,0,1-13.08,0,14,14,0,0,1-4.92-3.15,13.64,13.64,0,0,1-3.1-4.83,17,17,0,0,1-1.07-6.15V11.79H107V33.34a11.18,11.18,0,0,0,.49,3.44,7.25,7.25,0,0,0,1.41,2.58A6.08,6.08,0,0,0,111.12,41,7.77,7.77,0,0,0,114.16,41.54Z"/>
</svg>