<svg xmlns="http://www.w3.org/2000/svg" viewBox="0 0 934 350.56">
    <path d="M304,143.47a121.67,121.67,0,0,0-27.44-41.19A126.76,126.76,0,0,0,234,75.14c-16.48-6.49-35-9.79-55-9.79H77.22V325.2H179.07c20,0,38.48-3.26,54.95-9.7a124.81,124.81,0,0,0,42.57-27.15A122.59,122.59,0,0,0,304,247.09a136.79,136.79,0,0,0,9.71-51.9A136.3,136.3,0,0,0,304,143.47ZM241.2,227.82a68.13,68.13,0,0,1-13.11,24.07,56.7,56.7,0,0,1-20.73,15c-8.2,3.51-17.72,5.28-28.29,5.28h-35V118.39h35c10.57,0,20.08,1.78,28.29,5.29a56.57,56.57,0,0,1,20.73,15,68.29,68.29,0,0,1,13.11,24.07,106.16,106.16,0,0,1,4.64,32.45A106.82,106.82,0,0,1,241.2,227.82Z"/>
    <path d="M597.36,143.06A126,126,0,0,0,570,100.94a128.16,128.16,0,0,0-42.55-28.11c-16.49-6.79-35-10.24-55-10.24S433.85,66,417.32,72.74a127.5,127.5,0,0,0-42.73,28,125.51,125.51,0,0,0-27.5,42.12,139.93,139.93,0,0,0-9.7,52.31,139.86,139.86,0,0,0,9.7,52.31,124.2,124.2,0,0,0,70.23,70.32C433.86,324.55,452.39,328,472.4,328s38.52-3.41,55-10.15a124.09,124.09,0,0,0,70-70.32,139.93,139.93,0,0,0,9.7-52.31A139.43,139.43,0,0,0,597.36,143.06Zm-62.82,84.66a67.63,67.63,0,0,1-13.1,23.89,55.4,55.4,0,0,1-20.71,14.73c-8.22,3.41-17.75,5.14-28.34,5.14s-20.33-1.73-28.6-5.14A54.39,54.39,0,0,1,423,251.61a67.34,67.34,0,0,1-13.11-23.9,106,106,0,0,1-4.63-32.53,105.51,105.51,0,0,1,4.63-32.36A67.38,67.38,0,0,1,423,138.95a56.05,56.05,0,0,1,20.8-14.82c8.28-3.46,17.89-5.22,28.58-5.22a72.91,72.91,0,0,1,28.32,5.21,56.28,56.28,0,0,1,20.72,14.83,67.63,67.63,0,0,1,13.1,23.89,105.31,105.31,0,0,1,4.64,32.36A105.93,105.93,0,0,1,534.54,227.73Z"/>
    <path d="M856.78,65.36V218.52a121,121,0,0,1-7.79,44,99.82,99.82,0,0,1-22.42,34.74,101.46,101.46,0,0,1-35.44,22.68c-13.77,5.34-29.44,8.06-46.56,8.06s-33-2.71-46.74-8.06a101.55,101.55,0,0,1-35.44-22.68A98.84,98.84,0,0,1,640,262.47a122.35,122.35,0,0,1-7.69-44V65.36h66.51v153A73.55,73.55,0,0,0,702,240.86a46.26,46.26,0,0,0,9,16.38,37.7,37.7,0,0,0,14.15,10.15,54.64,54.64,0,0,0,38.84,0,38.3,38.3,0,0,0,14.16-10.08A45.45,45.45,0,0,0,787.1,241a73.75,73.75,0,0,0,3.17-22.51V65.36Z"/>
</svg>