<svg xmlns="http://www.w3.org/2000/svg" viewBox="0 0 918.09 877.29">
    <path d="M251.92,408.89a138,138,0,0,0-46.38-29.6c-17.86-7-37.84-10.61-59.39-10.61H33.54V651.59H146.15c21.54,0,41.51-3.53,59.36-10.5a136.2,136.2,0,0,0,46.44-29.64,133.73,133.73,0,0,0,30-45.06,154.82,154.82,0,0,0,0-112.49A132.79,132.79,0,0,0,251.92,408.89ZM190.5,563.05a49.58,49.58,0,0,1-18.41,13.31c-7.43,3.18-16.16,4.79-25.94,4.79h-28v-142h28c9.77,0,18.5,1.61,25.94,4.79a49.6,49.6,0,0,1,18.41,13.3,62.33,62.33,0,0,1,11.9,21.95,111.67,111.67,0,0,1,0,62A62.23,62.23,0,0,1,190.5,563.05Z"/>
    <path d="M570.63,407.6A139.54,139.54,0,0,0,524.3,377c-17.91-7.38-38-11.12-59.57-11.12s-41.66,3.71-59.61,11a139,139,0,0,0-46.54,30.55,136.79,136.79,0,0,0-30,45.94,157.7,157.7,0,0,0,0,113.41,135.59,135.59,0,0,0,76.54,76.67c18,7.31,38,11,59.61,11s41.63-3.71,59.53-11a135.46,135.46,0,0,0,76.26-76.66,157.26,157.26,0,0,0,0-113.23A137.55,137.55,0,0,0,570.63,407.6ZM509.11,562.76a48.34,48.34,0,0,1-18.32,13c-7.47,3.1-16.24,4.67-26.06,4.67s-18.82-1.57-26.35-4.68a48.17,48.17,0,0,1-18.39-13A61.38,61.38,0,0,1,408.12,541a111.06,111.06,0,0,1,0-61.75A61.4,61.4,0,0,1,420,457.51a49,49,0,0,1,18.45-13.12c7.53-3.15,16.37-4.74,26.29-4.74s18.54,1.59,26,4.73a49.19,49.19,0,0,1,18.38,13.13A61.46,61.46,0,0,1,521,479.26,111,111,0,0,1,521,541,61.44,61.44,0,0,1,509.11,562.76Z"/>
    <path d="M872.41,368.68H800.27V534a67.77,67.77,0,0,1-2.87,20.68,38.8,38.8,0,0,1-7.58,13.89,31.36,31.36,0,0,1-11.66,8.29,48.21,48.21,0,0,1-33.72,0,30.9,30.9,0,0,1-11.62-8.32,39.68,39.68,0,0,1-7.63-14,67.76,67.76,0,0,1-2.88-20.69V368.68H638V534a133.46,133.46,0,0,0,8.44,48,109.36,109.36,0,0,0,24.76,38.49,112.22,112.22,0,0,0,39.16,25.1c15.07,5.85,32.19,8.81,50.9,8.81s35.65-3,50.72-8.81a112.2,112.2,0,0,0,39.16-25.1A110.46,110.46,0,0,0,876,582.07,132.22,132.22,0,0,0,884.55,534V368.68Z"/>
</svg>