<svg xmlns="http://www.w3.org/2000/svg" viewBox="0 0 918.09 877.29">
    <path d="M674.1,495.41v159H581.92V506.06c0-37.27-13.33-62.71-46.7-62.71-25.47,0-40.63,17.14-47.3,33.72-2.43,5.93-3.06,14.18-3.06,22.48V654.43H392.64s1.24-251.29,0-277.32h92.21v39.31c-.19.29-.43.61-.61.9h.61v-.9c12.25-18.87,34.13-45.82,83.1-45.82C628.62,370.59,674.1,410.23,674.1,495.41Zm-377.93-252c-31.55,0-52.18,20.69-52.18,47.91,0,26.62,20,47.94,51,47.94h.62c32.16,0,52.16-21.32,52.16-47.94C347.12,264.12,327.72,243.43,296.17,243.43Zm-46.71,411h92.18V377.11H249.46Z"/>
</svg>